<svg width="0" height="0" class="hidden">
  <symbol xmlns="http://www.w3.org/2000/svg" viewBox="0 0 32 32" id="up-arrow">
    <path d="M28.68,19.68a1,1,0,0,1-.71-.29l-9.09-9.1c-1.42-1.41-2.44-2.44-2.94-2.44s-1.51,1-2.93,
      2.44l-9.09,9.1A1,1,0,0,1,2.5,18l9.1-9.09c4-4,4.67-4,8.69,0L29.39,18a1,1,0,0,1,0,1.42A1,1,0,0,1,28.68,19.68Z"
    />
  </symbol>
  <symbol xmlns="http://www.w3.org/2000/svg" viewBox="0 0 32 32" id="down-arrow">
    <path d="M28.68,19.68a1,1,0,0,1-.71-.29l-9.09-9.1c-1.42-1.41-2.44-2.44-2.94-2.44s-1.51,1-2.93,
      2.44l-9.09,9.1A1,1,0,0,1,2.5,18l9.1-9.09c4-4,4.67-4,8.69,0L29.39,18a1,1,0,0,1,0,1.42A1,1,0,0,1,28.68,19.68Z"
    />
  </symbol>
</svg>
