<?xml version="1.0" encoding="UTF-8"?><svg id="a" xmlns="http://www.w3.org/2000/svg" viewBox="0 0 30.48 23.23"><defs><style>.e{fill:#f96868;}.f{fill:#ff0911;}.g{fill:#fb4c4e;}.h{fill:#31c786;}.i{fill:#ff7327;}.j{fill:#fb4749;}.k{fill:#0767d0;}.l{fill:#e7edf5;}</style></defs><g id="b"><path class="h" d="M29.2,23.23c-.7,0-1.28-.57-1.28-1.28s.57-1.28,1.28-1.28,1.28,.57,1.28,1.28-.57,1.28-1.28,1.28Zm0-2.15c-.48,0-.87,.39-.87,.87s.39,.87,.87,.87,.87-.39,.87-.87-.39-.87-.87-.87Z"/></g><g id="c"><path class="e" d="M1.58,18.66c-.05,0-.1-.02-.14-.06L.06,17.23c-.05-.05-.07-.13-.05-.19s.07-.12,.14-.14l1.88-.5c.07-.02,.14,0,.19,.05s.07,.13,.05,.19l-.5,1.88c-.02,.07-.07,.12-.14,.14-.02,0-.03,0-.05,0Zm-.99-1.47l.88,.88,.32-1.21-1.21,.32Z"/></g><path class="i" d="M21.01,1.07h-.87V.2c0-.11-.09-.2-.2-.2s-.2,.09-.2,.2v.87h-.87c-.11,0-.2,.09-.2,.2s.09,.2,.2,.2h.87v.87c0,.11,.09,.2,.2,.2s.2-.09,.2-.2v-.87h.87c.11,0,.2-.09,.2-.2s-.09-.2-.2-.2Z"/><path class="l" d="M24.28,20.37H7.11c-1.05,0-1.7-1.13-1.17-2.04L14.59,3.54c.5-.85,1.73-.85,2.23,0l8.68,14.72c.55,.94-.12,2.12-1.21,2.12Z"/><g id="d"><path class="k" d="M18.9,20.57v-.4h5.32c.33,0,.64-.14,.87-.39,.23-.24,.35-.56,.34-.89,0-.21-.06-.41-.17-.59L16.74,3.78c-.32-.58-1.04-.79-1.61-.48-.2,.11-.36,.27-.47,.47L6.12,18.3c-.17,.29-.21,.62-.12,.94,.09,.32,.29,.59,.58,.76,.18,.1,.38,.16,.59,.17h5.32v.4H7.17c-.28,0-.55-.08-.79-.22-.38-.22-.65-.58-.77-1-.11-.43-.06-.87,.16-1.25L14.3,3.58c.14-.26,.36-.48,.63-.63,.37-.2,.8-.25,1.21-.13,.41,.12,.74,.39,.95,.76l8.52,14.52c.14,.24,.21,.51,.22,.79,.01,.44-.15,.86-.45,1.18s-.71,.5-1.15,.51h-5.33Z"/></g><path class="g" d="M16.57,17.05c0,1.1-1.72,1.1-1.72,0l-.21-5.59c-.02-1.44,2.12-1.47,2.14-.03l-.21,5.61Z"/><path class="f" d="M15.71,18.07c-.58,0-1.04-.45-1.06-1.03l-.21-5.56c-.01-.34,.11-.66,.34-.91,.23-.25,.54-.39,.88-.41h.05c.34,0,.66,.13,.9,.37,.24,.24,.37,.56,.37,.9v.04l-.21,5.56c-.02,.57-.49,1.03-1.06,1.03Zm0-7.7v.2h-.03c-.23,0-.45,.11-.6,.28-.16,.17-.24,.39-.23,.62l.21,5.56c.01,.36,.3,.64,.66,.64,.36,0,.65-.28,.66-.64l.21-5.59c0-.23-.09-.45-.25-.61s-.38-.25-.61-.25v-.2Z"/><circle class="j" cx="15.69" cy="20.37" r="1.11"/><path class="f" d="M15.7,21.68c-.72,0-1.31-.59-1.31-1.31s.59-1.31,1.31-1.31,1.31,.59,1.31,1.31-.59,1.31-1.31,1.31Zm0-2.22c-.5,0-.91,.41-.91,.91s.41,.91,.91,.91,.91-.41,.91-.91-.41-.91-.91-.91Z"/></svg>