<svg xmlns="http://www.w3.org/2000/svg" width="0" height="0" class="hidden">
<symbol viewBox="0 0 32 32" id="dashboard">
    <path d="M4,2h9c1.1,0,2,0.9,2,2v14c0,1.1-0.9,2-2,2H4c-1.1,0-2-0.9-2-2V4C2,2.9,2.9,2,4,2z M19,12h9c1.1,0,2,0.9,2,2v14
  c0,1.1-0.9,2-2,2h-9c-1.1,0-2-0.9-2-2V14C17,12.9,17.9,12,19,12z M4,22h9c1.1,0,2,0.9,2,2v4c0,1.1-0.9,2-2,2H4c-1.1,0-2-0.9-2-2v-4
  C2,22.9,2.9,22,4,22z M19,2h9c1.1,0,2,0.9,2,2v4c0,1.1-0.9,2-2,2h-9c-1.1,0-2-0.9-2-2V4C17,2.9,17.9,2,19,2z"/>
  </symbol>
  <symbol viewBox="0 0 32 32" id="calendar">
    <path d="m21.6,2.6h-4V.3c0-.2-.1-.3-.2-.3h-2c-.17,0-.3.13-.3.3v2.3h-6.1V.3c0-.17-.13-.3-.3-.3h-2c-.1,0-.2.1-.2.3v2.3H2.5c-1.38,0-2.5,1.12-2.5,2.5v19.1c0,1.38,1.12,2.5,2.5,2.5h20.12c.93,0,1.68-.75,1.68-1.68V5.1c-.2-1.4-1.3-2.5-2.7-2.5Zm.1,21.6H2.6l-.1-19h4v2.6c0,.2.1.3.3.3h2c.2,0,.3-.1.3-.3v-2.7h6.1v2.6c0,.2.1.3.3.3h2c.2,0,.3-.1.3-.3v-2.6h3.9v19.1ZM7.86,11.9v2.19c0,.31-.25.56-.56.56h-2.19c-.31,0-.56-.25-.56-.56v-2.19c0-.31.25-.56.56-.56h2.19c.31,0,.56.25.56.56Zm6.04,0v2.19c0,.31-.25.56-.56.56h-2.19c-.31,0-.56-.25-.56-.56v-2.19c0-.31.25-.56.56-.56h2.19c.31,0,.56.25.56.56Zm3.29-.56h2.19c.31,0,.56.25.56.56v2.19c0,.31-.25.56-.56.56h-2.19c-.31,0-.56-.25-.56-.56v-2.19c0-.31.25-.56.56-.56Zm-9.33,7.82v2.19c0,.31-.25.56-.56.56h-2.19c-.31,0-.56-.25-.56-.56v-2.19c0-.31.25-.56.56-.56h2.19c.31,0,.56.25.56.56Zm6.04,0v2.19c0,.31-.25.56-.56.56h-2.19c-.31,0-.56-.25-.56-.56v-2.19c0-.31.25-.56.56-.56h2.19c.31,0,.56.25.56.56Zm6.04,0v2.19c0,.31-.25.56-.56.56h-2.19c-.31,0-.56-.25-.56-.56v-2.19c0-.31.25-.56.56-.56h2.19c.31,0,.56.25.56.56Z"/>
  </symbol>
  <symbol viewBox="0 0 32 32" id="add">
    <path d="M30.8,16c0,0.9-0.7,1.6-1.6,1.6H17.6v11.5c0,0.9-0.7,1.6-1.6,1.6s-1.6-0.7-1.6-1.6V17.6H2.9
  c-0.9,0-1.6-0.7-1.6-1.6s0.7-1.6,1.6-1.6h11.5V2.9c0-0.9,0.7-1.6,1.6-1.6s1.6,0.7,1.6,1.6v11.5h11.5C30,14.4,30.8,15.1,30.8,16z"/>
  </symbol>

  <symbol viewBox="0 0 32 32" id="edit">
    <path d="M29.4,3.7l-1.3-1.3c-1.9-1.9-5-1.9-6.8,0l-2.5,2.5c0,0,0,0,0,0c0,0,0,0,0,0L4.9,18.8c0,0,0,0,0,0c0,0,0,0,0,0
  c-0.1,0.1-0.2,0.3-0.3,0.4c0,0,0,0,0,0l-3,7.8c-0.8,1.7-0.2,2.6,0.2,3c0.3,0.3,0.7,0.6,1.4,0.6c0.4,0,0.9-0.1,1.5-0.4l7.9-3.1
  c0,0,0,0,0,0c0.2-0.1,0.3-0.2,0.4-0.3c0,0,0,0,0,0c0,0,0,0,0,0L26.9,13c0,0,0,0,0,0c0,0,0,0,0,0l2.5-2.5C31.3,8.6,31.3,5.5,29.4,3.7
  z M12.1,24.2l-4.5-4.5L19.7,7.6l4.5,4.5L12.1,24.2z M4,27.8L6.3,22l3.6,3.6L4,27.8z M27.6,8.7L26,10.3l-4.5-4.5l1.6-1.6
  c0.9-0.9,2.4-0.9,3.3,0l1.3,1.3C28.5,6.3,28.5,7.8,27.6,8.7z"/>
  </symbol>

<symbol viewBox="0 0 32 32" id="upload">
  <path d="M29.4,26.2H2.2C2.1,26.2,2,26.1,2,26V13c0-0.1,0.1-0.2,0.2-0.2h1.3c0.1,0,0.2,0.1,0.2,0.2v11.4
  c0,0.1,0.1,0.2,0.2,0.2h23.9c0.1,0,0.2-0.1,0.2-0.2V13c0-0.1,0.1-0.2,0.2-0.2h1.3c0.1,0,0.2,0.1,0.2,0.2v13
  C29.6,26.1,29.5,26.2,29.4,26.2z M21.4,9.4l-5.8-5.8c-0.1-0.1-0.2-0.1-0.2,0L9.7,9.4c-0.1,0.1-0.1,0.2,0,0.2l1,1
  c0.1,0.1,0.2,0.1,0.2,0L14.6,7v12.4c0,0.1,0.1,0.2,0.2,0.2h1.4c0.1,0,0.2-0.1,0.2-0.2V6.8l3.8,3.8c0.1,0.1,0.2,0.1,0.2,0l1-1
  C21.5,9.6,21.5,9.5,21.4,9.4z"/>
  </symbol>

  <symbol viewBox="0 0 32 32" id="save">
    <path class="cls-1" d="M30.4,8.4l-6.8-6.8c-0.2-0.2-0.6-0.4-0.9-0.4H5.6c-2.6,0-4.7,2.1-4.7,4.7v20.5c0,2.6,2.1,4.7,4.7,4.7h20.5
  c2.6,0,4.7-2.1,4.7-4.7V9.3C30.8,8.9,30.7,8.6,30.4,8.4z M12,3.7h7.7V8H12V3.7z M21.4,28.5H10.3v-7.7h11.1V28.5z M28.3,26.3
  c0,1.2-1,2.1-2.1,2.1H24V18.2H7.8v10.2H5.6c-1.2,0-2.1-1-2.1-2.1V5.9c0-1.2,1-2.1,2.1-2.1h3.8v6.8h12.8V3.8l6,6V26.3z"
    />
  </symbol>

  <symbol viewBox="0 0 32 32" id="delete">
    <path d="M26,4h-5.7V3.5c0-1.6-1.4-2.9-3.1-2.9h-3.5c-1.7,0-3.1,1.3-3.1,2.9V4H5C3.3,4,2,5.3,2,6.9v1.7
  c0,1.1,0.7,2.1,1.7,2.6v15.7c0,2.5,2.2,4.6,4.8,4.6h14c2.6,0,4.8-2,4.8-4.6V11.2c1-0.5,1.8-1.5,1.8-2.6V6.9C29,5.3,27.6,4,26,4z
   M13.3,3.5c0-0.2,0.2-0.4,0.4-0.4h3.5c0.2,0,0.4,0.2,0.4,0.4V4h-4.4V3.5z M4.6,6.9c0-0.2,0.2-0.4,0.4-0.4h5.7h9.6H26
  c0.2,0,0.4,0.2,0.4,0.4v1.7c0,0.2-0.2,0.4-0.4,0.4H5c-0.2,0-0.4-0.2-0.4-0.4V6.9z M24.6,26.8c0,1.1-1,2.1-2.2,2.1h-14
  c-1.2,0-2.2-0.9-2.2-2.1V11.4h18.3V26.8z M10.7,23.4v-6.6c0-0.7,0.6-1.2,1.3-1.2c0.7,0,1.3,0.6,1.3,1.2v6.6c0,0.7-0.6,1.2-1.3,1.2
  C11.3,24.6,10.7,24,10.7,23.4z M17.7,23.4v-6.6c0-0.7,0.6-1.2,1.3-1.2c0.7,0,1.3,0.6,1.3,1.2v6.6c0,0.7-0.6,1.2-1.3,1.2
  C18.3,24.6,17.7,24,17.7,23.4z"/>
  </symbol>

  <symbol viewBox="0 0 32 32" id="close">
    <path d="M29.3,27.9c0.5,0.5,0.5,1.2,0,1.7c-0.2,0.2-0.5,0.3-0.8,0.3s-0.6-0.1-0.8-0.3L15.8,17.7L3.9,29.5
  c-0.2,0.2-0.5,0.3-0.8,0.3s-0.6-0.1-0.8-0.3c-0.5-0.5-0.5-1.2,0-1.7L14.1,16L2.3,4.1c-0.5-0.5-0.5-1.2,0-1.7s1.2-0.5,1.7,0
  l11.9,11.9L27.6,2.5c0.5-0.5,1.2-0.5,1.7,0c0.5,0.5,0.5,1.2,0,1.7L17.5,16L29.3,27.9z"/>
  </symbol>

  <symbol viewBox="0 0 32 32" id="next">
    <path class="cls-1" d="M30.4,17.4L17.5,31.3c-0.2,0.2-0.5,0.2-0.7,0L15.4,30c-0.2-0.2-0.2-0.5,0-0.7l10.2-10.9
  c0.3-0.3,0.1-0.9-0.4-0.9H1.5c-0.3,0-0.5-0.2-0.5-0.5v-1.9c0-0.3,0.2-0.5,0.5-0.5h23.7c0.5,0,0.7-0.5,0.4-0.9L15.4,2.7
  c-0.2-0.2-0.2-0.5,0-0.7l1.4-1.3c0.2-0.2,0.5-0.2,0.7,0l12.8,13.7C31.1,15.4,31.1,16.6,30.4,17.4z"
    />
  </symbol>

  <symbol viewBox="0 0 32 32" id="back">
    <path d="M29,17H4.37a1,1,0,0,1,0-2H29a1,1,0,0,1,0,2Z"/>
    <path d="M10,25a1,1,0,0,1-.71-.29c-8.38-8.38-8.38-9,0-17.42a1,1,0,1,1,1.42,1.42C7,12.39,5,14.41,5,16s2,3.61,5.71,7.29a1,1,0,0,1,0,1.42A1,1,0,0,1,10,25Z"/>
  </symbol>

  <symbol viewBox="0 0 32 32" id="search">
    <path d="M13.83,25.67A11.84,11.84,0,1,1,25.67,13.83,11.85,11.85,0,0,1,13.83,25.67ZM13.83,4a9.84,
    9.84,0,1,0,9.84,9.83A9.84,9.84,0,0,0,13.83,4Z"/>
    <path d="M29,30a1,1,0,0,1-.71-.29l-7-7a1,1,0,0,
      1,1.42-1.42l7,7a1,1,0,0,1,0,1.42A1,1,0,0,1,29,30Z"/>
  </symbol>

  <symbol viewBox="0 0 32 32" id="time">
    <path d="M16,30A14,14,0,1,1,30,16,14,14,0,0,1,16,30ZM16,4A12,12,0,1,0,28,16,12,12,0,0,0,16,4Z"/>
    <path d="M16,17a1,1,0,0,1-.56-.17A1,1,0,0,1,15,16V8.42a1,1,0,0,1,2,0v6.1l4-1.62a1,1,0,0,1,1.31.56,
      1,1,0,0,1-.56,1.3l-5.42,2.17A.94.94,0,0,1,16,17Z"
    />
  </symbol>

  <symbol viewBox="0 0 32 32" id="alarm">
    <path class="cls-1" d="M28.29,26.45H19.46a3.58,3.58,0,0,1-7.15,0H3.67a1.73,1.73,0,0,1-1.6-1.21,2,2,0,0,
      1,.56-2,6.87,6.87,0,0,0,2.82-5.6V12.45A10.42,10.42,0,0,1,16,2,10.48,10.48,0,0,1,26.51,12.45v5.23a6.87,
      6.87,0,0,0,2.82,5.6,1.73,1.73,0,0,1,.56,2,1.61,1.61,0,0,1-1.6,1.21Z"
    />
  </symbol>

  <symbol viewBox="0 0 32 32" id="account-settings">
    <path class="cls-1" d="M13.53,22.19c-3.72,0-6.74-3.09-6.74-6.9s3.03-6.9,6.74-6.9,6.75,3.1,6.75,6.9-3.03,6.9-6.75,6.9Zm0-11.18c-2.27,0-4.12,1.92-4.12,4.28s1.85,4.28,4.12,4.28,4.12-1.92,4.12-4.28-1.85-4.28-4.12-4.28Zm0,19.55c-.76,0-1.52-.2-2.2-.6L2.17,24.54C.82,23.73,0,22.26,0,20.7V9.86c0-1.55,.82-3.02,2.16-3.82h0L11.34,.6c1.35-.81,3.04-.81,4.4,0l9.17,5.41c1.35,.81,2.18,2.28,2.17,3.85v10.84c0,1.56-.82,3.03-2.17,3.83l-9.18,5.42c-.68,.4-1.44,.6-2.2,.6ZM3.51,8.29c-.55,.33-.89,.93-.89,1.57v10.85c0,.65,.34,1.25,.89,1.58l9.16,5.41c.53,.32,1.19,.31,1.72,0l9.17-5.42c.55-.33,.89-.93,.89-1.58V9.86c0-.65-.34-1.26-.89-1.59L14.4,2.86c-.53-.32-1.19-.32-1.72,0L3.51,8.29Z" transform="translate(0.75 0.779)"/>
  </symbol>

  <symbol viewBox="0 0 32 32" id="info">
    <path d="M16,30A14,14,0,1,1,30,16,14,14,0,0,1,16,30ZM16,4A12,12,0,1,0,28,16,12,12,0,0,0,16,4Z"/>
    <path d="M16,22.42a1,1,0,0,1-1-1V13.83a1,1,0,1,1,2,0v7.59A1,1,0,0,1,16,22.42Z"/>
    <path d="M16,11.58a1,1,0,0,1-.38-.07,1.06,1.06,0,0,1-.33-.22,1.58,1.58,0,0,1-.12-.15,
      1.08,1.08,0,0,1-.15-.36,1.36,1.36,0,0,1,0-.2,1,1,0,0,1,.29-.7,1,1,0,0,1,1.42,0l.12.15a.56.56,
      0,0,1,.09.17.6.6,0,0,1,.06.19,1.23,1.23,0,0,1,0,.19,1.36,1.36,0,0,1,0,.2,1.08,1.08,0,0,1-.15.36l-.12.15A1,1,
      0,0,1,16,11.58Z"
    />
  </symbol>

  <symbol viewBox="0 0 32 32" id="alert">
    <path d="M29.7,24.8L18.1,5c-0.5-0.9-1.3-1.4-2.1-1.4c-0.8,0-1.6,0.5-2.1,1.4L2.3,24.8c-0.5,0.9-0.6,1.8-0.2,2.5s1.2,1.1,2.3,1.1
	h23.2c1.1,0,1.9-0.4,2.3-1.1C30.3,26.6,30.2,25.7,29.7,24.8L29.7,24.8z M28.8,26.7c-0.2,0.3-0.6,0.5-1.2,0.5H4.4
	c-0.6,0-1-0.2-1.2-0.5c-0.2-0.3-0.1-0.8,0.2-1.3L15,5.7c0.3-0.5,0.7-0.8,1-0.8c0.3,0,0.8,0.3,1,0.8l11.5,19.8
	C28.9,25.9,29,26.4,28.8,26.7L28.8,26.7z M16.9,22.1c0,0.5-0.4,0.9-0.9,0.9c-0.5,0-0.9-0.4-0.9-0.9s0.4-0.9,0.9-0.9
	C16.5,21.2,16.9,21.6,16.9,22.1z M16.9,13v6c0,0.5-0.4,0.9-0.9,0.9c-0.5,0-0.9-0.4-0.9-0.9v-6c0-0.5,0.4-0.9,0.9-0.9
	C16.5,12.1,16.9,12.5,16.9,13z"/>
  </symbol>

  <symbol viewBox="0 0 32 32" id="collapse">
    <path d="M15,29.88a1,1,0,0,1-.71-.29L5.05,20.35C3,18.3,2,17.28,2,15.94s1-2.36,3.07-4.4l9.24-9.25a1,
      1,0,1,1,1.42,1.42L6.46,13C5,14.39,4,15.43,4,15.94s1,1.55,2.48,3l9.25,9.25a1,1,0,0,1,0,1.41A1,1,0,
      0,1,15,29.88Z"
    />
    <path d="M24,29.88a1,1,0,0,1-.71-.29l-9.24-9.24C12,18.3,11,17.28,11,15.94s1-2.36,3.07-4.4l9.24-9.25a1,1,0,1,1,1.42,1.42L15.46,13C14,14.39,13,15.43,13,15.94s1,1.55,2.48,3l9.25,9.25a1,1,0,0,1,0,1.41A1,1,0,0,1,24,29.88Z"/>
  </symbol>

  <symbol viewBox="0 0 32 32" id="location">
    <path class="st0" d="M16,31l-8.8-9.1c-1-1.1-1.7-2.2-2.2-3.5c-0.7-1.6-1-3.3-1-5c-0.1-3.2,1.1-6.3,3.4-8.7c2.3-2.4,5.3-3.7,8.6-3.7
  L16,1c6.7,0.1,12.1,5.7,12,12.4c0,1.7-0.3,3.4-1,5c-0.5,1.3-1.3,2.4-2.2,3.4L16,31z M16,3.7c-2.6,0.1-4.9,1.1-6.7,2.9
  c-1.8,1.8-2.7,4.3-2.7,6.8c0,1.4,0.3,2.7,0.8,4c0.4,1,1,1.9,1.7,2.7l6.8,7.1l6.8-7.1c0.7-0.8,1.3-1.7,1.7-2.7c0.5-1.3,0.8-2.6,0.8-4
  C25.4,8.1,21.2,3.8,16,3.7z M16,18.8c-3.2,0-5.8-2.6-5.8-5.8s2.6-5.8,5.8-5.8s5.8,2.6,5.8,5.8S19.2,18.8,16,18.8z M16,9.9
  c-1.7,0-3.1,1.4-3.1,3.1s1.4,3.1,3.1,3.1s3.1-1.4,3.1-3.1S17.7,9.9,16,9.9z"/>
  </symbol>

  <symbol viewBox="0 0 32 32" id="crown">
    <path class="cls-1" d="M30.4,9.1c-0.4-0.3-1-0.3-1.4,0l-6.3,4.5l-5.6-9.4c-0.5-0.8-1.7-0.8-2.2,0l-5.6,9.4L3,9.1c-0.4-0.3-1-0.3-1.4,0
  C1.1,9.4,0.9,9.9,1,10.4L3.1,22v6.5h25.8V22L31,10.4C31.1,9.9,30.9,9.4,30.4,9.1z M8.9,16.5c0.3,0.2,0.7,0.3,1,0.2
  c0.4-0.1,0.7-0.3,0.8-0.6L16,7.4l5.2,8.8c0.2,0.3,0.5,0.5,0.8,0.6c0.3,0.1,0.7,0,1-0.2l4.8-3.5l-1.4,7.5H5.5l-1.4-7.5L8.9,16.5z
   M26.3,25.9H5.7v-2.7h20.7V25.9z"/>
  </symbol>

  <symbol viewBox="0 0 32 32" id="switch">
    <path class="cls-1" d="M28.01,10.45H1.42c-.62,0-1.17-.4-1.36-.99-.19-.59,.02-1.23,.52-1.59L11.12,.27c.64-.46,1.53-.32,1.99,.32,.46,.64,.32,1.53-.32,1.99L5.83,7.6H28.01c.79,0,1.42,.64,1.42,1.42s-.64,1.42-1.42,1.42Zm-9.69,18.72l10.53-7.6c.5-.36,.71-1,.52-1.59-.19-.59-.74-.99-1.36-.99H1.42C.64,18.99,0,19.63,0,20.42s.64,1.42,1.42,1.42H23.6l-6.95,5.02c-.64,.46-.78,1.35-.32,1.99,.28,.39,.71,.59,1.16,.59,.29,0,.58-.09,.83-.27Z" transform="translate(0.75 1.047)"/>
  </symbol>

  <symbol viewBox="0 0 32 32" id="power">
    <path class="cls-1" d="M14.05,30.02h-.37C6.23,30.02,.1,23.99,0,16.49-.06,11.66,2.41,7.17,6.5,4.65c.28-.17,.66-.07,.82,.22l.74,1.33c.15,.27,.06,.61-.21,.78-3.25,2.04-5.21,5.62-5.16,9.48,.08,6.08,5.05,10.92,11.17,10.87,4.13,.03,7.99-2.19,9.93-5.87,2.75-5.2,.9-11.64-4.1-14.62-.27-.16-.38-.5-.23-.78l.71-1.34c.15-.29,.53-.41,.81-.24,6.29,3.68,8.62,11.73,5.19,18.23-2.39,4.52-7.02,7.31-12.12,7.31Zm1.17-19.99V.59c0-.32-.26-.59-.59-.59h-1.52c-.32,0-.59,.26-.59,.59V10.04c0,.32,.26,.59,.59,.59h1.52c.32,0,.59-.26,.59-.59Z" transform="translate(0.75)"/>
  </symbol>

  <symbol viewBox="0 0 32 32" id="tick">
    <path d="M11.2,26.2l-9.5-9.5c-0.3-0.3-0.3-0.7,0-1l0.6-0.6c0.3-0.3,0.7-0.3,1,0l7.9,7.9c0.3,0.3,0.7,0.3,1,0L28.7,6.6
  c0.3-0.3,0.7-0.3,1,0l0.6,0.6c0.3,0.3,0.3,0.7,0,1l-18,18C12,26.5,11.5,26.5,11.2,26.2z"/>
  </symbol>

  <symbol viewBox="0 0 32 32" id="cross">
    <path d="M29.1,28L28,29.1c-0.2,0.2-0.5,0.2-0.7,0L16,17.8L4.7,29.1c-0.2,0.2-0.5,0.2-0.7,0L2.9,28
  c-0.2-0.2-0.2-0.5,0-0.7L14.2,16L2.9,4.7C2.7,4.5,2.7,4.2,2.9,4L4,2.9c0.2-0.2,0.5-0.2,0.7,0L16,14.2L27.3,2.9
  c0.2-0.2,0.5-0.2,0.7,0L29.1,4c0.2,0.2,0.2,0.5,0,0.7L17.8,16l11.3,11.3C29.3,27.5,29.3,27.8,29.1,28z"/>
  </symbol>

  <symbol viewBox="0 0 32 32" id="parking">
    <path class="st0" d="M22.2,6.2c-1.5-1.3-3.7-1.9-6.6-1.9H8.7c-0.5,0-0.8,0.4-0.8,0.8v22.3c0,0.5,0.4,0.8,0.8,0.8h3.4
	c0.5,0,0.8-0.4,0.8-0.8v-7.7h2.2c3,0,5.3-0.7,6.9-2.1c1.6-1.4,2.4-3.3,2.4-5.9C24.5,9.3,23.7,7.4,22.2,6.2z M18.2,14.6
	c-0.8,0.6-1.9,0.9-3.5,0.9H13V8.5h2.3c1.4,0,2.4,0.3,3.1,0.9s1,1.4,1,2.6C19.3,13.1,18.9,14,18.2,14.6z"/>
  </symbol>

  <symbol viewBox="0 0 32 32" id="management">
    <path class="st0" d="M27,5.5H5c-2.1,0-3.8,1.7-3.8,3.8v13.9c0,2.1,1.7,3.8,3.8,3.8H27c2.1,0,3.8-1.7,3.8-3.8V9.3
	C30.9,7.2,29.2,5.5,27,5.5z M29.8,23.2c0,1.5-1.2,2.7-2.7,2.7H5c-1.5,0-2.7-1.2-2.7-2.7V9.3c0-1.5,1.2-2.7,2.7-2.7H27
	c1.5,0,2.7,1.2,2.7,2.7V23.2z M19.1,11.8c-2.5,0-4.4,2-4.4,4.4s2,4.4,4.4,4.4c2.5,0,4.4-2,4.4-4.4S21.6,11.8,19.1,11.8z M19.1,19.8
	c-1.9,0-3.5-1.6-3.5-3.5c0-1.9,1.6-3.5,3.5-3.5c1.9,0,3.5,1.6,3.5,3.5C22.6,18.2,21.1,19.8,19.1,19.8z M24.6,12.8l1.1-1.1l-2-2
	l-1.1,1.1c-0.6-0.4-1.3-0.7-2-0.8V8.4h-2.9v1.5c-0.7,0.2-1.4,0.5-2,0.8l-1.1-1.1l-2,2l1.1,1.1c-0.4,0.6-0.7,1.3-0.8,2h-1.5v2.9h1.5
	c0.2,0.7,0.5,1.4,0.8,2l-1.1,1.1l2,2l1.1-1.1c0.6,0.4,1.3,0.7,2,0.8v1.5h2.9v-1.5c0.7-0.2,1.4-0.5,2-0.8l1.1,1.1l2-2l-1.1-1.1
	c0.4-0.6,0.7-1.3,0.8-2H27v-2.9h-1.5C25.3,14.1,25,13.4,24.6,12.8z M26.1,16.8h-1.4l-0.1,0.4c-0.1,0.8-0.5,1.7-1,2.4l-0.2,0.3l1,1
	l-0.7,0.7l-1-1l-0.3,0.2c-0.7,0.5-1.5,0.8-2.4,1l-0.4,0.1v1.4h-1v-1.4l-0.4-0.1c-0.8-0.1-1.7-0.5-2.4-1l-0.3-0.2l-1,1l-0.7-0.7l1-1
	l-0.2-0.3c-0.5-0.7-0.8-1.5-1-2.4l-0.1-0.4h-1.4v-1h1.4l0.1-0.4c0.1-0.8,0.5-1.7,1-2.4l0.2-0.3l-1-1l0.7-0.7l1,1l0.3-0.2
	c0.7-0.5,1.5-0.8,2.4-1l0.4-0.1V9.3h1v1.4l0.4,0.1c0.8,0.1,1.7,0.5,2.4,1l0.3,0.2l1-1l0.7,0.7l-1,1l0.2,0.3c0.5,0.7,0.8,1.5,1,2.4
	l0.1,0.4h1.4V16.8z M8.4,10.3h-3c-0.3,0-0.6,0.3-0.6,0.6v1.3c0,0.3,0.3,0.6,0.6,0.6h3c0.3,0,0.6-0.3,0.6-0.6v-1.3
	C8.9,10.6,8.7,10.3,8.4,10.3z M8,11.8H5.7v-0.6H8V11.8z M8.4,15.1h-3c-0.3,0-0.6,0.3-0.6,0.6v1.3c0,0.3,0.3,0.6,0.6,0.6h3
	c0.3,0,0.6-0.3,0.6-0.6v-1.3C8.9,15.3,8.7,15.1,8.4,15.1z M8,16.6H5.7V16H8V16.6z M8.4,19.8h-3c-0.3,0-0.6,0.3-0.6,0.6v1.3
	c0,0.3,0.3,0.6,0.6,0.6h3c0.3,0,0.6-0.3,0.6-0.6v-1.3C8.9,20.1,8.7,19.8,8.4,19.8z M8,21.3H5.7v-0.6H8V21.3z"/>
  </symbol>

  <symbol viewBox="0 0 32 32" id="tracking">
    <path class="st0" d="M7.6,18l0.2,0.1L8.1,18c0.2-0.2,5.8-3.9,5.8-9.1c0-3.3-2.7-6-6-6s-6,2.7-6,6C1.8,14.7,7.4,17.9,7.6,18z
	 M7.8,3.7c2.8,0,5.1,2.3,5.1,5.1c0,4.2-4.1,7.5-5.1,8.2c-1-0.7-5.1-3.6-5.1-8.2C2.7,6,5,3.7,7.8,3.7z M11.5,8.8c0-2-1.6-3.6-3.6-3.6
	S4.2,6.8,4.2,8.8c0,2,1.6,3.6,3.6,3.6S11.5,10.8,11.5,8.8z M5.1,8.8c0-1.5,1.2-2.7,2.7-2.7s2.7,1.2,2.7,2.7c0,1.5-1.2,2.7-2.7,2.7
	S5.1,10.3,5.1,8.8z M23.1,8.4c-4.2,0-7.6,3.4-7.6,7.6c0,7.4,7.1,11.5,7.4,11.7l0.3,0.2l0.3-0.2c0.3-0.2,7.3-5,7.3-11.6
	C30.7,11.8,27.3,8.4,23.1,8.4z M23.1,26.5c-1.3-0.8-6.5-4.5-6.5-10.5c0-3.6,2.9-6.5,6.5-6.5s6.5,2.9,6.5,6.5
	C29.6,21.4,24.4,25.5,23.1,26.5z M23.1,11.4c-2.6,0-4.6,2.1-4.6,4.6s2.1,4.6,4.6,4.6s4.6-2.1,4.6-4.6S25.7,11.4,23.1,11.4z
	 M23.1,19.5c-1.9,0-3.5-1.6-3.5-3.5s1.6-3.5,3.5-3.5s3.5,1.6,3.5,3.5S25,19.5,23.1,19.5z M22.6,28.1c0.4,0.3,0.5,0.7,0,1.1l-2,0.1
	c-1.8,0.1-3.5,0.1-5,0.1c-3.5,0-5.8-0.4-6.1-1.9c-0.3-2,1.4-2.6,2.6-3c1.3-0.4,1.8-0.7,1.9-1.5c-0.5-1.3-3.5-0.8-6.1-0.4
	c-2.6,0.4-4.8,0.7-5.9-0.1c-0.4-0.3-0.6-0.7-0.6-1.2c-0.1-0.6,0.1-1.2,0.6-1.7c1.5-1.6,6-1.3,6-1.3c0.5,0.4,0.5,0.8-0.1,1.1
	c-1.1-0.1-4.1,0-5.1,1c-0.2,0.2-0.3,0.4-0.3,0.7c0,0.2,0.1,0.3,0.2,0.4c0.7,0.6,3,0.2,5.1-0.1c3.3-0.5,6.7-1,7.4,1.3l0,0.1
	c0.1,1.8-1.4,2.3-2.6,2.7c-1.4,0.5-2,0.8-1.8,1.8c0.2,1.2,5.6,1,10,0.8L22.6,28.1z"/>
  </symbol>

  <symbol viewBox="0 0 32 32" id="grid">
    <path d="M9.6,5v4.9c0,0.4-0.3,0.7-0.7,0.7H4c-0.4,0-0.7-0.3-0.7-0.7V5c0-0.4,0.3-0.7,0.7-0.7h4.9C9.3,4.3,9.6,4.6,9.6,5z M18.5,4.3
	h-4.9c-0.4,0-0.7,0.3-0.7,0.7v4.9c0,0.4,0.3,0.7,0.7,0.7h4.9c0.4,0,0.7-0.3,0.7-0.7V5C19.2,4.6,18.8,4.3,18.5,4.3z M28,4.3h-4.9
	c-0.4,0-0.7,0.3-0.7,0.7v4.9c0,0.4,0.3,0.7,0.7,0.7H28c0.4,0,0.7-0.3,0.7-0.7V5C28.7,4.6,28.4,4.3,28,4.3z M8.9,12.8H4
	c-0.4,0-0.7,0.3-0.7,0.7v4.9c0,0.4,0.3,0.7,0.7,0.7h4.9c0.4,0,0.7-0.3,0.7-0.7v-4.9C9.6,13.2,9.3,12.8,8.9,12.8z M18.5,12.8h-4.9
	c-0.4,0-0.7,0.3-0.7,0.7v4.9c0,0.4,0.3,0.7,0.7,0.7h4.9c0.4,0,0.7-0.3,0.7-0.7v-4.9C19.2,13.2,18.8,12.8,18.5,12.8z M28,12.8h-4.9
	c-0.4,0-0.7,0.3-0.7,0.7v4.9c0,0.4,0.3,0.7,0.7,0.7H28c0.4,0,0.7-0.3,0.7-0.7v-4.9C28.7,13.2,28.4,12.8,28,12.8z M8.9,21.4H4
	c-0.4,0-0.7,0.3-0.7,0.7V27c0,0.4,0.3,0.7,0.7,0.7h4.9c0.4,0,0.7-0.3,0.7-0.7v-4.9C9.6,21.7,9.3,21.4,8.9,21.4z M18.5,21.4h-4.9
	c-0.4,0-0.7,0.3-0.7,0.7V27c0,0.4,0.3,0.7,0.7,0.7h4.9c0.4,0,0.7-0.3,0.7-0.7v-4.9C19.2,21.7,18.8,21.4,18.5,21.4z M28,21.4h-4.9
	c-0.4,0-0.7,0.3-0.7,0.7V27c0,0.4,0.3,0.7,0.7,0.7H28c0.4,0,0.7-0.3,0.7-0.7v-4.9C28.7,21.7,28.4,21.4,28,21.4z"/>
  </symbol>

  <symbol viewBox="0 0 32 32" id="client">
    <path d="M26.3,2.7H5.7C3.1,2.7,1,4.8,1,7.4v17.2c0,2.6,2.1,4.7,4.7,4.7h20.6c2.6,0,4.7-2.1,4.7-4.7V7.4
  C31,4.8,28.9,2.7,26.3,2.7z M5.7,5.3h20.6c1.2,0,2.1,1,2.1,2.1V13h-7.7v-2.6h-9.4V13H3.6V7.4C3.6,6.2,4.5,5.3,5.7,5.3z M18.1,13v2.6
  h-4.3V13H18.1z M26.3,26.7H5.7c-1.2,0-2.1-1-2.1-2.1v-9h7.7v2.6h9.4v-2.6h7.7v9C28.4,25.8,27.5,26.7,26.3,26.7z"/>
  </symbol>

  <symbol viewBox="0 0 32 32" id="application">
    <path transform="translate(-21.25 -342.25)" d="M45.6,372.9H28.9c-3.5,0-6.3-2.8-6.3-6.3v-16.8
  c0-3.5,2.8-6.3,6.3-6.3h16.8c3.5,0,6.3,2.8,6.3,6.3v16.8C51.9,370.1,49.1,372.9,45.6,372.9z M28.9,346.1c-2.1,0-3.8,1.7-3.8,3.8
  v16.8c0,2.1,1.7,3.8,3.8,3.8h16.8c2.1,0,3.8-1.7,3.8-3.8v-16.8c0-2.1-1.7-3.8-3.8-3.8H28.9z M33.2,362.3c0.4-0.6,0.3-1.4-0.3-1.8
  l-3.1-2.3l3.1-2.3c0.6-0.4,0.7-1.2,0.3-1.8c-0.4-0.6-1.2-0.7-1.8-0.3l-4.6,3.3c-0.3,0.2-0.5,0.6-0.5,1s0.2,0.8,0.5,1l4.6,3.3
  c0.2,0.2,0.5,0.2,0.7,0.2C32.5,362.8,32.9,362.6,33.2,362.3z M43.4,362.6l4.6-3.3c0.3-0.2,0.5-0.6,0.5-1s-0.2-0.8-0.5-1l-4.6-3.3
  c-0.6-0.4-1.4-0.3-1.8,0.3c-0.4,0.6-0.3,1.4,0.3,1.8l3.1,2.3l-3.1,2.3c-0.6,0.4-0.7,1.2-0.3,1.8c0.2,0.3,0.6,0.5,1,0.5
  C43,362.8,43.2,362.7,43.4,362.6z M36.7,363.6l3.8-9.9c0.2-0.6-0.1-1.4-0.7-1.6c-0.6-0.2-1.4,0.1-1.6,0.7l-3.8,9.9
  c-0.2,0.6,0.1,1.4,0.7,1.6c0.1,0.1,0.3,0.1,0.5,0.1C36.1,364.4,36.5,364.1,36.7,363.6z"/>
  </symbol>

  <symbol viewBox="0 0 32 32" id="console">
    <path d="M27.3,30.7H4.7c-2,0-3.7-1.7-3.7-3.7V5c0-2,1.7-3.7,3.7-3.7h22.7C29.3,1.3,31,3,31,5v22
  C31,29,29.3,30.7,27.3,30.7z M4.7,3.8C4,3.8,3.4,4.4,3.4,5v22c0,0.7,0.5,1.2,1.2,1.2h22.7c0.7,0,1.2-0.5,1.2-1.2V5
  c0-0.7-0.5-1.2-1.2-1.2H4.7z M10.1,22.6l6.6-6.6c0.4-0.4,0.4-1,0-1.4L9.8,7.7c-0.4-0.4-1-0.4-1.4,0L8.1,8c-0.4,0.4-0.4,1,0,1.4
  l5.8,5.8l-5.5,5.5c-0.4,0.4-0.4,1,0,1.4l0.3,0.3C9.1,23,9.7,23,10.1,22.6z M24.7,22.7v-0.5c0-0.6-0.5-1-1-1h-5.6c-0.6,0-1,0.5-1,1
  v0.5c0,0.6,0.5,1,1,1h5.6C24.3,23.7,24.7,23.2,24.7,22.7z"/>
  </symbol>

  <symbol viewBox="0 0 32 32" id="app-icon">
    <path d="M24.5,2.8H7.5C3.9,2.8,1,5.6,1,9.2v13.7c0,3.5,2.9,6.4,6.4,6.4h17.1c3.5,0,6.4-2.9,6.4-6.4V9.2
  C31,5.6,28.1,2.8,24.5,2.8z M7.5,5.3h17.1c2.1,0,3.8,1.7,3.8,3.8v0.4H3.6V9.2C3.6,7,5.3,5.3,7.5,5.3z M24.5,26.7H7.5
  c-2.1,0-3.8-1.7-3.8-3.8V12.2h24.8v10.7C28.4,25,26.7,26.7,24.5,26.7z"/>
  </symbol>

  <symbol viewBox="0 0 32 32" id="undefined">
    <path d="M16,1C7.7,1,1,7.7,1,16c0,8.3,6.7,15,15,15c8.3,0,15-6.7,15-15C31,7.7,24.3,1,16,1z M16,28.4
  C9.1,28.4,3.6,22.9,3.6,16C3.6,9.1,9.1,3.6,16,3.6c6.9,0,12.4,5.6,12.4,12.4C28.4,22.9,22.9,28.4,16,28.4z M20.1,14.7
  c-0.1-0.3-0.2-0.5-0.3-0.7l3.6-3.6l-1.8-1.8L18,12.2c-0.2-0.1-0.5-0.2-0.7-0.3v-5h-2.6v5c-0.3,0.1-0.5,0.2-0.7,0.3l-3.6-3.6
  l-1.8,1.8l3.6,3.6c-0.1,0.2-0.2,0.5-0.3,0.7h-5v2.6h5c0.1,0.3,0.2,0.5,0.3,0.7l-3.6,3.6l1.8,1.8l3.6-3.6c0.2,0.1,0.5,0.2,0.7,0.3v5
  h2.6v-5c0.3-0.1,0.5-0.2,0.7-0.3l3.6,3.6l1.8-1.8L19.8,18c0.1-0.2,0.2-0.5,0.3-0.7h5v-2.6H20.1z M17.8,16c0,1-0.8,1.8-1.8,1.8
  S14.2,17,14.2,16s0.8-1.8,1.8-1.8S17.8,15,17.8,16z"/>
  </symbol>

  <symbol viewBox="0 0 32 32" id="user">
    <path d="M16,1.2C7.8,1.2,1.2,7.8,1.2,16S7.8,30.8,16,30.8S30.8,24.2,30.8,16S24.2,1.2,16,1.2z M16,3.7
  c6.8,0,12.3,5.5,12.3,12.3c0,2.6-0.8,4.9-2.1,6.9c-1-1.7-2.4-3.1-4.1-4.2c0.5-1,0.9-2.1,0.9-3.3v0c0-3.8-3.1-6.9-6.9-6.9
  c-1.8,0-3.6,0.7-4.9,2c-1.3,1.3-2,3-2,4.9c0,1.2,0.3,2.3,0.9,3.3c-1.6,1.1-3,2.5-4.1,4.2c-1.3-2-2.1-4.3-2.1-6.9
  C3.7,9.2,9.2,3.7,16,3.7z M11.6,15.5c0-1.2,0.5-2.3,1.3-3.1c0.8-0.8,1.9-1.3,3.1-1.3c2.4,0,4.4,2,4.4,4.4v0c0,1.2-0.5,2.3-1.3,3.1
  c-0.8,0.8-1.9,1.3-3.1,1.3c0,0,0,0,0,0C13.6,19.8,11.6,17.9,11.6,15.5z M7.6,25c0.9-1.7,2.3-3.2,3.9-4.2c1.2,1,2.7,1.7,4.5,1.7
  c0,0,0,0,0,0c1.7,0,3.2-0.6,4.5-1.7c1.6,1,3,2.5,3.9,4.2c-2.2,2-5.1,3.3-8.4,3.3C12.8,28.3,9.8,27,7.6,25z"/>
  </symbol>

  <symbol viewBox="0 0 32 32" id="driver">
    <path d="M29.67,28.57c-.82-4.4-3.49-8.15-7.26-10.32,.78-1.32,1.24-2.82,1.26-4.41,0-1.71-.49-3.35-1.41-4.74,.04-.12,.07-.25,.07-.38v-1.04c.23-.05,.44-.14,.61-.31,1.3-1.29,1.92-3.15,1.67-4.97-.07-.49-.4-.9-.87-1.05C20.91,.42,17.94-.03,14.98,0c-2.96-.05-5.96,.41-8.82,1.35-.54,.18-.88,.7-.86,1.27-.18,1.76,.45,3.52,1.69,4.76,.17,.17,.38,.26,.6,.31v1.04c0,.13,.04,.26,.07,.38-.91,1.39-1.41,3.03-1.41,4.76,.02,1.62,.5,3.11,1.27,4.4C3.77,20.44,1.1,24.19,.29,28.57l-.29,1.53H29.96l-.29-1.53ZM10.18,10.02h9.57c.89,1.07,1.4,2.41,1.4,3.81-.02,1.66-.68,3.21-1.84,4.37-1.14,1.13-2.64,1.76-4.27,1.76h-.18c-3.31,0-6.03-2.73-6.08-6.11,0-1.42,.51-2.76,1.4-3.83ZM14.98,2.58c2.47-.03,4.83,.29,7.16,.97-.06,.58-.28,1.14-.63,1.61H8.43c-.35-.47-.56-1.04-.62-1.62,2.32-.67,4.73-.98,7.17-.96ZM3.15,27.53c.99-3.12,3.15-5.71,6.02-7.23,1.52,1.38,3.49,2.24,5.65,2.24h.25c2.13,0,4.12-.81,5.7-2.25,2.87,1.52,5.04,4.11,6.03,7.24H3.15Z"/>
  </symbol>

  <symbol viewBox="0 0 32 32" id="role">
    <path transform="translate(0.75 0.75)" class="st0" d="M23.6,14.1c-0.3-2.7-1.6-5.1-3.9-6.6c-0.1-0.1-0.1-0.2-0.1-0.3
  l1.1-1.7c0.1-0.1,0.2-0.1,0.3-0.1c2.8,2,4.6,5,4.9,8.4c0,0.1-0.1,0.2-0.2,0.2l-2,0.1C23.7,14.3,23.6,14.2,23.6,14.1L23.6,14.1z
   M14.1,26.5c-1.7,0-3.4-0.3-5-1c-0.1,0-0.2-0.2-0.1-0.3l0.8-1.8c0-0.1,0.2-0.1,0.3-0.1c2.5,1.1,5.4,1.1,7.9,0c0.1,0,0.2,0,0.3,0.1
  l0.8,1.8c0,0.1,0,0.2-0.1,0.3C17.4,26.2,15.7,26.5,14.1,26.5L14.1,26.5z M4.3,14.3l-2-0.1c-0.1,0-0.2-0.1-0.2-0.2
  c0.3-3.4,2.2-6.6,5.1-8.5c0.1-0.1,0.2,0,0.3,0.1l1.1,1.7c0.1,0.1,0,0.2-0.1,0.3c-2.3,1.5-3.7,4-4,6.7C4.5,14.3,4.4,14.3,4.3,14.3
  L4.3,14.3z M14.1,9.3c-2.6,0-4.8-2.1-4.8-4.7S11.4,0,14.1,0s4.8,2.1,4.8,4.7S16.7,9.3,14.1,9.3L14.1,9.3z M14.1,2.4
  c-1.3,0-2.4,1-2.4,2.3s1.1,2.3,2.4,2.3s2.4-1,2.4-2.3S15.4,2.4,14.1,2.4z M4.8,24.8c-2.6,0-4.8-2.1-4.8-4.7s2.1-4.7,4.8-4.7
  s4.8,2.1,4.8,4.7S7.4,24.8,4.8,24.8z M4.8,17.9c-1.3,0-2.4,1-2.4,2.3c0,1.2,1.1,2.3,2.4,2.3s2.4-1,2.4-2.3
  C7.2,18.9,6.1,17.9,4.8,17.9z M23.3,24.8c-2.6,0-4.8-2.1-4.8-4.7s2.1-4.7,4.8-4.7s4.8,2.1,4.8,4.7S26,24.8,23.3,24.8z M23.3,17.9
  c-1.3,0-2.4,1-2.4,2.3c0,1.2,1.1,2.3,2.4,2.3s2.4-1,2.4-2.3C25.7,18.9,24.6,17.9,23.3,17.9z"/>
  </symbol>

  <symbol viewBox="0 0 32 32" id="filter">
    <path class="st0" d="M22.6,3.7h5.7c0.1,0,0.2,0.1,0.2,0.2v1.8c0,0.1-0.1,0.2-0.2,0.2h-5.7c-0.1,0-0.2-0.1-0.2-0.2V3.9
  C22.4,3.8,22.5,3.7,22.6,3.7z M15.5,3.7H1.6c-0.1,0-0.2,0.1-0.2,0.2v1.8c0,0.1,0.1,0.2,0.2,0.2h13.9c0.1,0,0.2,0.1,0.2,0.2v1.7
  c0,0.1,0.1,0.2,0.2,0.2h1.6c0.1,0,0.2-0.1,0.2-0.2V1.7c0-0.1-0.1-0.2-0.2-0.2h-1.6c-0.1,0-0.2,0.1-0.2,0.2v1.7
  C15.7,3.6,15.6,3.7,15.5,3.7z M22.4,22.7v1.8c0,0.1,0.1,0.2,0.2,0.2h5.7c0.1,0,0.2-0.1,0.2-0.2v-1.8c0-0.1-0.1-0.2-0.2-0.2h-5.7
  C22.5,22.5,22.4,22.6,22.4,22.7z M15.5,22.5H1.6c-0.1,0-0.2,0.1-0.2,0.2v1.8c0,0.1,0.1,0.2,0.2,0.2h13.9c0.1,0,0.2,0.1,0.2,0.2v1.7
  c0,0.1,0.1,0.2,0.2,0.2h1.6c0.1,0,0.2-0.1,0.2-0.2v-6.1c0-0.1-0.1-0.2-0.2-0.2h-1.6c-0.1,0-0.2,0.1-0.2,0.2v1.7
  C15.7,22.4,15.6,22.5,15.5,22.5z M28.4,13.1H14.7c-0.1,0-0.2-0.1-0.2-0.2v-1.7c0-0.1-0.1-0.2-0.2-0.2h-1.5c-0.1,0-0.2,0.1-0.2,0.2
  v6.1c0,0.1,0.1,0.2,0.2,0.2h1.5c0.1,0,0.2-0.1,0.2-0.2v-1.7c0-0.1,0.1-0.2,0.2-0.2h13.7c0.1,0,0.2-0.1,0.2-0.2v-1.8
  C28.6,13.2,28.5,13.1,28.4,13.1z M1.6,15.3h5.7c0.1,0,0.2-0.1,0.2-0.2v-1.8c0-0.1-0.1-0.2-0.2-0.2H1.6c-0.1,0-0.2,0.1-0.2,0.2v1.8
  C1.4,15.2,1.5,15.3,1.6,15.3z"/>
  </symbol>

  <symbol viewBox="0 0 32 32" id="audit-log">
    <path class="st0" d="M21.6,31.1H4.2c-1.3,0-2.4-1-2.4-2.3V3.7c0-1.3,1.1-2.3,2.4-2.3h17.4c1.3,0,2.4,1,2.4,2.3v11.1
  c0,0.2-0.1,0.3-0.3,0.3h-1.2c-0.2,0-0.3-0.1-0.3-0.3V3.7c0-0.3-0.3-0.6-0.6-0.6H4.2c-0.3,0-0.6,0.3-0.6,0.6v25.1
  c0,0.3,0.3,0.6,0.6,0.6h17.4c0.3,0,0.6-0.3,0.6-0.6V28H24v0.8C24,30.1,22.9,31.1,21.6,31.1z M18.1,8.1V7.3c0-0.3-0.2-0.5-0.5-0.5
  H8.2C8,6.8,7.7,7,7.7,7.3V8c0,0.3,0.2,0.5,0.5,0.5h9.4C17.9,8.6,18.1,8.3,18.1,8.1z M18.1,13.8v-0.9c0-0.2-0.2-0.4-0.4-0.4H8.2
  c-0.2,0-0.4,0.2-0.4,0.4v0.9c0,0.2,0.2,0.4,0.4,0.4h9.5C17.9,14.2,18.1,14,18.1,13.8z M15.1,19.4v-0.9c0-0.2-0.2-0.4-0.4-0.4H8.2
  c-0.2,0-0.4,0.2-0.4,0.4v0.9c0,0.2,0.2,0.4,0.4,0.4h6.5C14.9,19.9,15.1,19.7,15.1,19.4z M15.1,25v-0.7c0-0.3-0.2-0.5-0.5-0.5H8.3
  c-0.3,0-0.5,0.2-0.5,0.5V25c0,0.3,0.2,0.5,0.5,0.5h6.3C14.9,25.5,15.1,25.3,15.1,25z M30.1,22l-0.6,0.6c-0.1,0.1-3,3.3-6.8,3.3l0,0
  c-2.3,0-4.4-1.1-6.3-3.3L16,22.1l0.4-0.5c0.1-0.1,2.1-2.9,5.6-3.3c2.5-0.2,5,0.8,7.5,3.1L30.1,22z M28.5,22.1
  C28.5,22,28.5,22,28.5,22.1c-0.8-0.7-2.6-1.5-3.4-1.9c0,0.1,0,0.2,0,0.3c0,1.1-0.9,2-2.1,2.1c-0.7,0-1.3-0.3-1.7-0.8
  c-0.6-0.7-0.6-1.2-0.5-1.7c0,0,0-0.1-0.1-0.1c-1.2,0.4-2.1,1.5-2.6,2c0,0,0,0,0,0.1c1.4,1.4,2.9,2.5,4.4,2.5
  C24.9,24.6,27.6,22.9,28.5,22.1z"/>
  </symbol>

  <symbol viewBox="0 0 32 32" id="more-options">
    <path class="st0" d="M16,11L16,11c-1.1,0-2-0.9-2-2l0,0c0-1.1,0.9-2,2-2l0,0c1.1,0,2,0.9,2,2l0,0C18,10.1,17.1,11,16,11z M18,16
  L18,16c0-1.1-0.9-2-2-2l0,0c-1.1,0-2,0.9-2,2l0,0c0,1.1,0.9,2,2,2l0,0C17.1,17.9,18,17.1,18,16z M18,23L18,23c0-1.1-0.9-2-2-2l0,0
  c-1.1,0-2,0.9-2,2l0,0c0,1.1,0.9,2,2,2l0,0C17.1,25,18,24.1,18,23z M16,1.2C7.8,1.2,1.2,7.9,1.2,16c0,8.1,6.6,14.8,14.8,14.8
  S30.8,24.2,30.8,16C30.8,7.9,24.2,1.2,16,1.2z M16,29C8.8,29,3,23.2,3,16C3,8.9,8.8,3,16,3s13,5.9,13,13C29,23.1,23.2,29,16,29z"/>
  </symbol>

  <symbol viewBox="0 0 32 32" id="backend">
    <path class="st0" d="M10.9,21.8H5.1c0,0,0,0,0,0c-0.2,0-2.1-0.2-3.2-1.7c-0.8-1-1-2.4-0.7-4c0.6-3.5,3.3-4.8,5.2-5.2
  c0.2,0,0.3-0.1,0.3-0.3c0.5-1.9,2.4-6.2,8.2-6.6c2.8-0.2,5.1,0.8,6.8,2.8c1.6,1.9,2.3,5.1,2.1,5.2c-0.2,0.1-1.2-0.3-1.2-0.3
  c-0.2,0-0.3-0.2-0.3-0.3c-0.1-0.7-0.7-2.7-2.2-4.2c-1.4-1.3-3.1-1.9-5.2-1.8c-6,0.4-6.9,5.9-7,6.1l-0.1,0.6l-0.6,0
  c-0.2,0-3.9,0.2-4.6,4c-0.2,1.2-0.1,2.1,0.4,2.8c0.7,1,2.1,1.1,2.1,1.1l5.7,0c0.2,0,0.4,0.2,0.4,0.4v0.7
  C11.3,21.6,11.1,21.8,10.9,21.8z M16.2,8.3c0.4-0.3,0.5-0.7-0.1-1c-5.1,0.3-6.4,5.3-6.4,5.4c0.2,0.6,0.5,0.6,1,0.2
  C10.8,12.7,11.8,8.6,16.2,8.3z M28.7,16v6.8c0,0.7-0.6,1.3-1.3,1.3H14.2c-0.7,0-1.3-0.6-1.3-1.3V16c0-0.2,0-0.3,0.1-0.5l0.6-1.5
  c0.2-0.5,0.7-0.8,1.2-0.8h12c0.5,0,1,0.3,1.2,0.8l0.6,1.5C28.6,15.6,28.7,15.8,28.7,16z M14.3,19.3h12.8V17H14.3L14.3,19.3z
   M14.3,16h12.8v0l-0.5-1.3H14.9L14.3,16z M27.2,22.5v-2.3H14.3l0,2.3H27.2z M26.2,17.7h-0.9v0.9h0.9V17.7z M26.2,21h-0.9v0.9h0.9V21
  z"/>
  </symbol>

  <symbol viewBox="0 0 32 32" id="download">
    <path class="st0" d="M2.4,16.9c0.5,0,0.9,0.4,0.9,0.9v6.4c0,1,0.8,1.8,1.8,1.8h21.8c1,0,1.8-0.8,1.8-1.8v-6.4c0-0.5,0.4-0.9,0.9-0.9
  c0.5,0,0.9,0.4,0.9,0.9v6.4c0,2-1.6,3.6-3.6,3.6H5.1c-2,0-3.6-1.6-3.6-3.6v-6.4C1.5,17.3,1.9,16.9,2.4,16.9z M21.5,16
  c-0.4-0.4-0.9-0.4-1.3,0l-3.3,3.3V5.1c0-0.5-0.4-0.9-0.9-0.9s-0.9,0.4-0.9,0.9v14.2L11.8,16c-0.4-0.4-0.9-0.4-1.3,0
  c-0.4,0.4-0.4,0.9,0,1.3l4.8,4.8c0,0,0,0,0,0c0.4,0.4,0.9,0.4,1.3,0l4.8-4.8C21.8,16.9,21.8,16.4,21.5,16z"/>
  </symbol>

  <symbol viewBox="0 0 32 32" id="group">
    <path class="st0" d="M18.7,13c0,1.5-1.2,2.8-2.7,2.8c-1.5,0-2.7-1.2-2.7-2.8s1.2-2.8,2.7-2.8C17.5,10.2,18.7,11.5,18.7,13z M20.8,23
    v-2.7c0-1.9-1.7-3.5-3.8-3.5H15c-2.1,0-3.8,1.6-3.8,3.5V23C11.2,24.5,20.8,24.5,20.8,23z M13.3,10C13.3,10,13.3,10,13.3,10
    c0-1.6-1.2-2.9-2.8-2.9S7.7,8.4,7.7,10c0,1.6,1.2,2.8,2.8,2.8c0.5,0,1-0.2,1.4-0.4C11.9,11.4,12.5,10.5,13.3,10z M12.1,13.7
    c-0.2,0-0.3,0-0.5,0H9.5c-2.1,0-3.8,1.6-3.8,3.6V20c0,0.7,2,1.1,4.2,1.1v-1.4c0-2,1.7-3.6,3.8-3.6h0.2
    C12.9,15.7,12.2,14.8,12.1,13.7z M20.1,12.4c0.4,0.2,0.9,0.4,1.4,0.4c1.5,0,2.8-1.3,2.8-2.8c0-1.6-1.2-2.8-2.8-2.8
    c-1.5,0-2.8,1.3-2.8,2.8c0,0,0,0,0,0C19.5,10.5,20.1,11.4,20.1,12.4z M18.2,16.1h0.2c2.1,0,3.8,1.6,3.8,3.6v1.4
    c2.2-0.1,4.2-0.4,4.2-1.1v-2.7c0-2-1.7-3.6-3.8-3.6h-2.1c-0.2,0-0.3,0-0.5,0C19.8,14.8,19.1,15.7,18.2,16.1z M31.6,16
    c0-8.6-7-15.6-15.6-15.6S0.4,7.4,0.4,16s7,15.6,15.6,15.6S31.6,24.6,31.6,16z M29.6,16c0,7.5-6.1,13.6-13.6,13.6S2.4,23.5,2.4,16
    S8.5,2.4,16,2.4S29.6,8.5,29.6,16z"/>
  </symbol>

  <symbol viewBox="0 0 32 32" id="geofence">
    <path class="st0" d="m15,18.82c4.5-6.63,5.28-8.88,4.86-12.95C19.34,1.16,14.84,0,13.24,0c-1.37,0-6.06,1.04-6.77,5.87-.68,4.55,2.52,9.88,4.76,12.96-6.35.28-11.22,1.86-11.22,3.76,0,2.11,5.93,3.81,13.24,3.81s13.24-1.71,13.24-3.81c0-1.93-5-3.53-11.47-3.78Zm-4.74-11.9c0-1.65,1.33-2.98,2.98-2.98s2.98,1.33,2.98,2.98-1.33,2.98-2.98,2.98-2.98-1.33-2.98-2.98Zm2.98,17.9c-5.86,0-10.6-1.33-10.6-2.98,0-1.46,3.73-2.67,8.64-2.92,1.1,1.51,1.96,2.47,1.96,2.47.63-.9,1.19-1.71,1.71-2.48,5.04.23,8.9,1.45,8.9,2.93,0,1.64-4.75,2.98-10.6,2.98Z"/>
  </symbol>

  <symbol viewBox="0 0 32 32" id="bell">
    <path class="st0" d="M25.9,15.9c0-0.2,0-0.4,0-0.7c0-5-3-9.3-7.2-10.7c0,0,0,0,0,0c0-2-1.2-3.5-2.8-3.5s-2.8,1.6-2.8,3.5
  c0,0,0,0,0,0c-4.2,1.4-7.2,5.7-7.2,10.7c0,0.2,0,0.4,0,0.7c-2.6,2-4.1,4.8-4.1,7.7c0,1.6,0.1,3.2,1.2,4.2c1.5,1.4,4.1,1.3,9.4,1
  l0.3,0c0.4,1.3,1.6,2.3,3.1,2.3c1.5,0,2.7-0.9,3.1-2.3l0.5,0c5.3,0.3,7.8,0.4,9.2-1c1-0.9,1.2-2.4,1.2-4.2
  C30,20.7,28.5,17.9,25.9,15.9z M14.4,6l0.8-0.2L15,5c0-0.2,0-0.3,0-0.5c0-1,0.6-1.8,1.1-1.8s1.1,0.8,1.1,1.8c0,0.2,0,0.3,0,0.5
  l-0.1,0.8L17.6,6c3.8,0.9,6.6,4.8,6.6,9.2c0,0.1,0,0.3,0,0.4c-7.7,2.2-14.5,0.6-16.4,0c0-0.1,0-0.3,0-0.4C7.8,10.8,10.5,6.9,14.4,6z
   M27.7,26.6c-0.9,0.9-3.4,0.7-8,0.5L17.6,27l0,0.9c0,0.8-0.7,1.5-1.5,1.5c-0.8,0-1.5-0.7-1.5-1.5l0-0.9l-2,0.1
  c-4.5,0.2-7.2,0.4-8.1-0.5c-0.5-0.5-0.7-1.4-0.7-3c0-2.4,1.2-4.6,3.5-6.3c1.2,0.4,4.5,1.2,8.9,1.2c2.6,0,5.6-0.3,8.8-1.2
  c2.3,1.7,3.5,3.9,3.5,6.3C28.3,25.2,28.1,26.1,27.7,26.6z"/>
  </symbol>
















  <symbol viewBox="0 0 32 32" id="bus">
    <path d="M23,19.56a1.75,1.75,0,1,1-1.76,1.75A1.75,1.75,0,0,1,23,19.56Zm0,2.49a.75.75,0,0,0,.75-.74.75.75,0,
    0,0-1.5,0A.74.74,0,0,0,23,22.05ZM4,10H23.58a4.08,4.08,0,0,1,2.48,1.14h1.42a3.1,3.1,0,0,1,2.45,1.78.44.44,
    0,0,1-.37.68.43.43,0,0,1-.37-.2c-.58-.88-1-1.38-1.71-1.38h-.55c1,1.18,1.88,3.94,2.24,5.72v1.92a1.8,1.8,0,
    0,1-1.81,1.8H25.57v-.16a2.54,2.54,0,0,0-5.08,0v.15s-2.7,0-5.8,0c0-.05,0-.09,0-.13a2.55,2.55,0,0,0-5.09,
    0v.12H8.7v-.12a2.55,2.55,0,0,0-5.09,0v.14h-.1A1.8,1.8,0,0,1,2,19.67V15C2.41,12.81,2.7,10,4,10ZM28.09,
    20a1.06,1.06,0,0,0,.05-.31V19c-.8,0-1.29.45-1.29.74S27.41,20,28.09,20Zm-7.9-4.53h.75c2.37,0,5.76,2.2,
    7.18,2.23a14.59,14.59,0,0,0-2-5c-1-1.17-1.88-1.67-2.58-1.67H20.19ZM3,15.46H19.18V11h-15c-.19,0-.37.35-.53.83a23.06,
    23.06,0,0,0-.53,2.47c0,.26-.09.51-.14.76Zm3.15,4.1a1.75,1.75,0,1,1-1.77,1.75A1.75,1.75,0,0,1,6.16,19.56Zm0,
    2.49a.75.75,0,0,0,.75-.74.76.76,0,1,0-.75.74Zm6-2.49a1.75,1.75,0,1,1-1.77,1.75A1.75,1.75,0,0,1,12.16,19.56Zm0,
    2.49a.75.75,0,0,0,.75-.74.76.76,0,1,0-.75.74Z"/>
  </symbol>

  <symbol viewBox="0 0 32 32" id="road">
    <path d="M29.89,26.64,23.14,3.4C23,2.56,22.39,2,21.83,2H18.4A1.36,1.36,0,0,0,17,3.44v.24a.73.73,
      0,0,1-.37.7H15.27c-.19,0-.38-.28-.38-.56h0l0-.32A1.37,1.37,0,0,0,13.57,2H10.3c-.65,0-1.12.56-1.4,
      1.4L2.15,26.64a2.94,2.94,0,0,0,.75,3.08,1,1,0,0,0,.56.28h8.28a1.36,1.36,0,0,0,
      1.36-1.27l.39-5.87a.9.9,0,0,1,.75-1h3.37a.9.9,0,0,1,.75,1l.39,5.87A1.36,1.36,0,0,
      0,20.11,30h8.28c.85,0,1.5-1.12,1.5-2.38a1.15,1.15,0,0,0,0-1ZM14.71,7.18c0-.28.18-.56.37-.56H17c.18,0,
      .37.28.37.56l.19,3.22c0,.42-.19,1-.56,1H14.89c-.28,0-.56-.42-.56-.84V10.4ZM17.33,19.5H14.61c-.47,
      0-.75-.56-.75-1.12v-.14l.28-3.5a.91.91,0,0,1,.75-1h2.16a.9.9,0,0,1,.75,1l.28,3.5a1.06,1.06,0,0,1-.75,1.26Z"/>
  </symbol>

  <symbol viewBox="0 0 32 32" id="truck">
     <path d="M29.94,16.88a.63.63,0,0,0,0-.19c-.17-.42-.9-2.33-1.33-3.45a2.27,2.27,0,0,0-2.25-1.59H23.59c-.56,
    0-.86.25-.86.83v5.46a.53.53,0,0,0,.53.53H29.4a.54.54,0,0,0,.54-.53ZM27.66,16l-1-.94a1.22,1.22,0,0,
    0-1-.36H24.26a.54.54,0,0,1-.53-.54v-.95a.53.53,0,0,1,.53-.53h2.07a1.29,1.29,0,0,1,1.33,1c.26.67.62,
    1.62.91,2.36ZM9.35,21.31Zm11.82-2.83H2.6A.54.54,0,0,1,2.06,18V10.54A.54.54,0,0,1,2.6,10H21.17a.54.54,0,0,
    1,.54.54V18A.54.54,0,0,1,21.17,18.48Zm5,1.09a1.72,1.72,0,1,0,1.65,1.72A1.69,1.69,0,0,0,26.14,19.57Zm0,
    2.57a.86.86,0,1,1,.83-.85A.84.84,0,0,1,26.14,22.14ZM11,19.57a1.72,1.72,0,1,0,1.65,1.72A1.69,1.69,0,0,0,
    11,19.57Zm0,2.57a.86.86,0,1,1,.83-.85A.84.84,0,0,1,11,22.14Zm5.18-2.57a1.72,1.72,0,1,0,1.65,1.72A1.68,
    1.68,0,0,0,16.22,19.57Zm0,2.57a.86.86,0,1,1,.83-.85A.84.84,0,0,1,16.22,22.14Zm-2.42-.85c0,.06,0,.12,0,
    .18h-.36c0-.06,0-.12,0-.18a2.62,2.62,0,0,0-.29-1.19.53.53,0,0,1,.46-.8h0a.53.53,0,0,1,.46.8A2.62,2.62,
    0,0,0,13.8,21.29Zm-5.35-2a.53.53,0,0,1,.46.8,2.62,2.62,0,0,0-.29,1.19c0,.06,0,.18,0,.18H8.27c0-.06,
    0-.12,0-.18A2.62,2.62,0,0,0,8,20.1a.53.53,0,0,1,.46-.8Zm15.27,2c0,.06,0,.12,0,.18H18.64c0-.06,0-.12,
    0-.18a2.62,2.62,0,0,0-.29-1.19.53.53,0,0,1,.46-.8h4.73a.53.53,0,0,1,.46.8A2.62,2.62,0,0,0,23.72,
    21.29Zm5.16.18h-.33a1.09,1.09,0,0,0,0-.18,2.49,2.49,0,0,0-.29-1.19.53.53,0,0,1,.46-.8H30C30,20.57,
    30.1,21.47,28.88,21.47Zm-23-1.9h0a1.72,1.72,0,0,0,0,3.43h0a1.72,1.72,0,0,0,0-3.43ZM5,21.29a.82.82,
    0,1,1,.82.85A.84.84,0,0,1,5,21.29Zm-1.6,0c0,.06,0,.12,0,.18H3.12C2,21.47,2,20.81,2,19.83a.54.54,0,0,1,
    .54-.53h.73a.53.53,0,0,1,.46.8A2.62,2.62,0,0,0,3.44,21.29Z"
  />
  </symbol>

  <symbol viewBox="0 0 32 32" id="dumper">
    <path d="M21.55,10.19a.45.45,0,0,1,.3-.27L23,9.61V9H19.74l-.54,1.24a.42.42,0,0,1-.39.25H5.51l.29-.94H4.62a.44.44,
      0,0,0-.41.28L2.08,15.62a.42.42,0,0,0,0,.39l1.32,1.9a.41.41,0,0,0,.35.18H18.39a.43.43,0,0,0,.41-.29Zm-.81,4.65,
      1,.41-1,2.83H19.56Zm8.83,3.24a.43.43,0,0,0,.43-.43V15.43a1.14,1.14,0,0,0-.47-1.11.38.38,0,0,
      1-.16-.19l-.76-1.9a2.45,2.45,0,0,0-2.5-1.68H22.65a.43.43,0,0,0-.43.43v5.41a.42.42,0,0,0,
      .54.41A4.24,4.24,0,0,1,27,18a.42.42,0,0,0,.3.13Zm-1.38-1.71h-.57a.42.42,0,0,1-.43-.42v-.83a.41.41,0,
      0,0-.26-.39l-3-1.24a.41.41,0,0,1-.26-.39V11.86a.43.43,0,0,1,.43-.43h2a1.56,1.56,0,0,1,1.67,1.13l.81,
      2.19a.4.4,0,0,1,0,.15v1A.42.42,0,0,1,28.19,16.37Zm-14.41,2.5a2,2,0,1,1-2,2A2,2,0,0,1,13.78,18.87Zm0,
      3a1,1,0,1,0-1-1A1,1,0,0,0,13.78,21.91Zm-6.14-3a2,2,0,1,1-2,2A2,2,0,0,1,7.64,18.87Zm0,3a1,1,0,1,0,
      0-2.08,1,1,0,0,0,0,2.08Zm2.72-1a3,3,0,0,1,0,.43h.77a2,2,0,0,1,0-.43,2.69,2.69,0,0,1,.39-1.41.42.42,0,
      0,0-.37-.63h-.74a.42.42,0,0,0-.37.63A2.69,2.69,0,0,1,10.36,20.87Zm-6.62-2v.87H4.93a.42.42,0,0,0,
      .37-.22,2.79,2.79,0,0,1,.54-.65Zm12.5.87h1a.44.44,0,0,1,.32.15l1.16,1.31a.43.43,0,0,0,
      .32.14H20.8a.42.42,0,0,0,.42-.43,2.29,2.29,0,0,1,.85-1.71,2.7,2.7,0,0,1,4.4.67,2.75,2.75,
      0,0,1,.2,1,3,3,0,0,1,0,.43h2.93a.43.43,0,0,0,.43-.43V19.24a.43.43,0,0,0-.43-.43H26.91a.44.44,0,0,
      1-.32-.15A3.45,3.45,0,0,0,24,17.42a3.49,3.49,0,0,0-2.65,1.24.4.4,0,0,1-.32.16h-5.4A2.83,2.83,0,
      0,1,16.24,19.7ZM24,18.87a2,2,0,1,1-2,2A2,2,0,0,1,24,18.87Zm0,3a1,1,0,0,0,0-2.08,1,1,0,0,0,0,2.08Z"
    />
  </symbol>

  <symbol viewBox="0 0 32 32" id="engine">
    <path d="M19,26H11c-1,0-2-2-2-2H8a2.28,2.28,0,0,
    1-2-2V20H5v1c0,1-2,1-2,0v-4c0-1,2-1,2,0v1H6v-2.6a1.53,1.53,0,0,1,1.53-1.53H8.2a.4.4,0,0,
    0,.28-.12l1.29-1.29A1.59,1.59,0,0,1,11,12h2.61a.39.39,0,0,0,.39-.39V10H13c-1,0-1-2,0-2h4c1,
    0,1,2,0,2H16v1.61a.39.39,0,0,0,.39.39H19a2,2,0,0,1,1.45.46l.37.38L16,19.37a.4.4,0,0,
    0,.32.63h5.17a.4.4,0,0,1,.39.49L21,23.86l0,.08C20.84,24.23,19.92,26,19,26ZM29.24,
    14H25a.39.39,0,0,1-.37-.53L26,9.67a.4.4,0,0,0-.69-.37l-6.18,8.39a.4.4,0,0,0,
    .32.63h4.27a.39.39,0,0,1,.37.53l-1.6,4.37a.4.4,0,0,0,.7.37l6.37-9A.4.4,0,0,0,29.24,14Z"
  />
  </symbol>

  <symbol viewBox="0 0 32 32" id="gass">
    <path d="M18.24,5.36A3.35,3.35,0,0,0,15,2H5.29A3.35,3.35,0,0,0,2,5.36V29.49a.48.48,0,0,0,.5.51H17.84a.48.48,0,
      0,0,.5-.51Zm-3.69,8.55H5.79a.48.48,0,0,1-.5-.51V5.87a.48.48,0,0,1,.5-.51h8.76a.48.48,0,0,1,.5.51V13.3A.56.56,
      0,0,1,14.55,13.91Z"
    />
    <path d="M26.5,29.5h-.23A3.28,3.28,0,0,1,23,26.23V20a.91.91,0,0,0-1-1H17a1,1,0,0,1,0-2h5a2.91,2.91,0,0,1,3,
      3v6.23a1.27,1.27,0,0,0,1.27,1.27h.23A1.5,1.5,0,0,0,28,26V12.06a1.51,1.51,0,0,0-.46-1.1L21.79,5.21a1,1,0,
      0,1,1.42-1.42L29,9.54a3.57,3.57,0,0,1,1,2.52V26A3.5,3.5,0,0,1,26.5,29.5Z"
    />
    <path d="M25,17a4,4,0,1,1,4-4A4,4,0,0,1,25,17Zm0-6a2,2,0,1,0,2,2A2,2,0,0,0,25,11Z"/>
  </symbol>

  <symbol viewBox="0 0 32 32" id="list">
    <path d="M9,8a2,2,0,1,0,2,2A2,2,0,0,0,9,8Zm0,6a2,2,0,0,0,0,4,2,2,0,0,0,0-4Zm0,6a2,2,0,1,0,2,2h0a2,2,
      0,0,0-2-2Zm16-9V8.85A.76.76,0,0,0,24.31,8H12.69a.76.76,0,0,0-.69.85v2.3a.76.76,0,0,0,.69.85H24.31A1,
      1,0,0,0,25,11Zm0,6.2V14.87a.78.78,0,0,0-.69-.87H12.69a.78.78,0,0,0-.69.87v2.24a.78.78,0,0,0,
      .69.87H24.31c.39.12.69-.37.69-.75Zm0,5.82V21a.71.71,0,0,0-.69-.75H12.69A.71.71,0,0,0,12,
      21h0v2a.71.71,0,0,0,.69.75H24.31a.71.71,0,0,0,.69-.75Zm3,7H4a2,2,0,0,1-2-2V4A2,2,0,0,1,
      4,2H28a2,2,0,0,1,2,2V28A2,2,0,0,1,28,30Z"
    />
  </symbol>

  <symbol viewBox="0 0 32 32" id="key">
    <path d="M22.43,13.67a6.26,6.26,0,0,0-2.7.3c-3.7-3.1-13.3-11.3-14-12.1a1.61,1.61,0,0,0-1.1-.5,2.13,
      2.13,0,0,0-1.5.7C2.63,2.57.73,4.57,1,5c1.1,1.1,1.4,1.3,1.8,1.8.7.7,2-.1,2.6.2.5.1.8.4.8.8A8.81,
      8.81,0,0,1,6,9.47a2.1,2.1,0,0,0,.7,1.4,1.38,1.38,0,0,0,1.1.6c.6,0,1.5-.9,2.2-.2s-.5,1.7-.4,
      2.5a2.48,2.48,0,0,0,1.6,1.7c.4.1,1.6-.8,2.2-.7a2,2,0,0,1,.8.8c.1.3-.5,1.8-.4,2.1a5.39,
      5.39,0,0,0,.7,1.3,8.29,8.29,0,0,0-.7,3.4,8.79,8.79,0,0,0,8.6,8.9,8.79,8.79,0,0,
      0,8.6-8.9h0a8.62,8.62,0,0,0-8.5-8.8.1.1,0,0,1-.1.1Zm1.7,13.1a1,1,0,1,1,1,1,1.07,1.07,
      0,0,1-1-1Z"
    />
  </symbol>

  <symbol viewBox="0 0 32 32" id="log-out">
    <path d="M16.14,30H5a3.1,3.1,0,0,1-3-3.17V5.17A3.1,3.1,0,0,1,5,2H16.14a3.11,3.11,0,0,1,3,3.17v6.5a1,
      1,0,1,1-2,0V5.17a1.1,1.1,0,0,0-1-1.17H5A1.1,1.1,0,0,0,4,5.17V26.83A1.1,1.1,0,0,0,5,28H16.14a1.1,
      1.1,0,0,0,1-1.17v-6.5a1,1,0,0,1,2,0v6.5A3.11,3.11,0,0,1,16.14,30Z"
    />
    <path d="M27.92,17H8.42a1,1,0,0,1,0-2h19.5a1,1,0,0,1,0,2Z"/>
    <path d="M23,25a1,1,0,0,1-.71-.29,1,1,0,0,1,0-1.42C26,19.61,28,17.59,28,16s-2-3.61-5.71-7.29a1,
      1,0,1,1,1.42-1.42c8.38,8.38,8.38,9,0,17.42A1,1,0,0,1,23,25Z"
    />
  </symbol>

  <symbol viewBox="0 0 32 32" id="cargo">
    <path d="M25,20.68a2.2,2.2,0,0,0-2.67,2.66,2.15,2.15,0,0,0,1.57,1.58A2.19,2.19,0,1,0,25,20.68Zm-.54,
      3.22a1.09,1.09,0,1,1,1.09-1.09A1.09,1.09,0,0,1,24.43,23.9ZM2,21.25H4.72a3,3,0,0,0-.42,1.48H3.5C1.79,
      22.73,2,21.25,2,21.25Zm5.35-1.51a3.05,3.05,0,0,1,2.09.82H22.34a3.06,3.06,0,0,1,4.17,
      0h2.74v-3s-1.11-2.79-1.73-4.33a2.88,2.88,0,0,0-2.86-1.94H21.19a1.1,1.1,0,0,0-1.1,1.1v5.7H18.9V9H2V20.56H5.28A3,
      3,0,0,1,7.36,19.74Zm14-7.15h3.3a1.63,1.63,0,0,1,1.69,1.18l1.53,3.83H26.25l-1.14-1.05a1.61,1.61,0,0,
      0-1.31-.44H21.36Zm-14,10.14h0ZM10,21.25H21.78a3.1,3.1,0,0,0-.42,1.48H10.43A3,3,0,0,0,10,21.25Zm18.81,
      1.48H27.49a3,3,0,0,0-.42-1.48H30S30.15,22.73,28.81,22.73ZM7.9,20.68a2.19,2.19,0,1,0,1.58,1.57A2.15,
      2.15,0,0,0,7.9,20.68ZM7.36,23.9a1.1,1.1,0,1,1,1.1-1.1A1.09,1.09,0,0,1,7.36,23.9Z"
    />
  </symbol>

  <symbol viewBox="0 0 32 32" id="full-window">
    <path d="M12.11,13.12a1,1,0,0,1-.7-.3l-8-8a1,1,0,0,1,0-1.41,1,1,0,0,1,1.42,0l8,8a1,1,0,0,1-.71,1.71Z"/>
    <path d="M3,11.58a1,1,0,0,1-1-1V5.17C2,2.44,2.44,2,5.17,2h5.41a1,1,0,0,1,0,2H5.17C4.73,4,4.28,4,4,4c0,.25,
      0,.7,0,1.14v5.41A1,1,0,0,1,3,11.58Z"
    />
    <path d="M27.87,28.86a1,1,0,0,1-.71-.29l-8-8a1,1,0,1,1,1.41-1.41l8,8a1,1,0,0,1-.71,1.7Z"/>
    <path d="M26.83,30H21.42a1,1,0,0,1,0-2h5.41c.44,0,.89,0,1.14,0,0-.25,0-.7,0-1.14V21.42a1,1,
      0,0,1,2,0v5.41C30,29.56,29.56,30,26.83,30Z"
    />
  </symbol>

  <symbol viewBox="0 0 32 32" id="card-view">
    <rect x="2" y="2" width="8" height="8" rx="2"/>
    <rect x="12" y="2" width="8" height="8" rx="2"/>
    <rect x="22" y="2" width="8" height="8" rx="2"/>
    <rect x="2" y="12" width="8" height="8" rx="2"/>
    <rect x="12" y="12" width="8" height="8" rx="2"/>
    <rect x="22" y="12" width="8" height="8" rx="2"/>
    <rect x="2" y="22" width="8" height="8" rx="2"/>
    <rect x="12" y="22" width="8" height="8" rx="2"/>
    <rect x="22" y="22" width="8" height="8" rx="2"/>
  </symbol>

  <symbol viewBox="0 0 32 32" id="milage">
    <path d="M16,17.65a1.73,1.73,0,0,0,.11-3.46,1.85,1.85,0,0,1-.91-.29c-1-.7-2.87-2-3.08-2.12s-.44,
      0-.25.3,2.15,3.11,2.27,3.31a1.11,1.11,0,0,1,.13.61A1.68,1.68,0,0,0,16,17.65Z"
    />
    <rect x="5" y="26" width="22" height="4" rx="1"/>
    <path d="M29,17H25a1,1,0,0,1,0-2h4a1,1,0,0,1,0,2Z"/>
    <path d="M7,17H3a1,1,0,0,1,0-2H7a1,1,0,0,1,0,2Z"/>
    <path d="M16,8a1,1,0,0,1-1-1V3a1,1,0,0,1,2,0V7A1,1,0,0,1,16,8Z"/>
    <path d="M10,11a1,1,0,0,1-.71-.29l-3-3A1,1,0,0,1,7.71,6.29l3,3a1,1,0,0,1,0,1.42A1,1,0,0,1,10,11Z"/>
    <path d="M22,11a1,1,0,0,1-.71-.29,1,1,0,0,1,0-1.42l3-3a1,1,0,1,1,1.42,1.42l-3,3A1,1,0,0,1,22,11Z"/>
    <path d="M26,25H24a1,1,0,0,1-.71-.29l-2-2a1,1,0,0,1,1.42-1.42L24.41,23H25.5A13.21,13.21,0,0,0,28,16,12,
      12,0,0,0,16,4,11.44,11.44,0,0,0,7.78,7.5,12.78,12.78,0,0,0,4,16a13,13,0,0,0,2.5,7H7.59l1.7-1.71a1,1,0,
      0,1,1.42,1.42l-2,2A1,1,0,0,1,8,25H6a1,1,0,0,1-.77-.36A15.14,15.14,0,0,1,2,16,14.65,14.65,0,0,1,6.36,6.09,
      13.42,13.42,0,0,1,16,2,14,14,0,0,1,30,16a15.29,15.29,0,0,1-3.21,8.62A1,1,0,0,1,26,25Z"
    />
  </symbol>

  <symbol viewBox="0 0 32 32" id="half-moon">
    <path d="M26.68,23.15H26a13,13,0,0,1-9.3-3.93,13.52,13.52,0,0,1-3.86-9.43A14,14,0,0,1,14.18,4a15.19,
      15.19,0,0,1,1-1.68c.1-.09.1-.28-.09-.28S15,2,14.93,2A14.05,14.05,0,0,0,3.18,18.1,14.25,14.25,0,0,0,
      17.09,30,14,14,0,0,0,27.72,25a10.06,10.06,0,0,0,1.22-1.58.24.24,0,0,0-.1-.38c-.09,0-.18-.09-.18,0C28,
      23.05,27.34,23.15,26.68,23.15Z"
    />
  </symbol>

  <symbol viewBox="0 0 32 32" id="altitude">
    <path d="M26.9,28H5.08A3.06,3.06,0,0,1,2.4,26.47a3.2,3.2,0,0,1,0-3.08L13.32,4.64a3.1,3.1,0,0,
      1,5.35,0L29.58,23.39a3,3,0,0,1,0,3.06A3.07,3.07,0,0,1,26.9,28ZM16,5.11a1.08,1.08,0,0,0-1,
      .54L4.13,24.39a1.22,1.22,0,0,0,0,1.07,1.09,1.09,0,0,0,1,.54H26.9a1.1,1.1,0,0,0,1-.54,1.06,
      1.06,0,0,0,0-1.07L16.94,5.65A1.07,1.07,0,0,0,16,5.11Z"
    />
    <path d="M28.72,23.89,22.1,12.43H16.72L13.6,15.55l-3.51-3.12L3.48,23.89A2.07,2.07,0,0,0,5.28,
      27H26.92A2.07,2.07,0,0,0,28.72,23.89Z"
    />
  </symbol>

  <symbol viewBox="0 0 32 32" id="tanker">
   <path d="M2,13.35c0,1.91.5,3.31,1.12,3.31h15c.62,0,1.12-1.4,1.12-3.31S18.7,10,18.08,
    10h-2V9.51h.21V9H14.75v.51H15V10H10.35V9.51h.2V9H8.06v.51h.21V10H3.12C2.5,10,2,
    11.43,2,13.35ZM25.88,23a2.07,2.07,0,1,1,2-2.07,2,2,0,0,1-2,2.07Zm0-.9a1.17,
    1.17,0,1,0-1.1-1.17,1.15,1.15,0,0,0,1.1,1.17ZM5.05,23a2.07,2.07,0,0,1,0-4.14,
    2.07,2.07,0,0,1,0,4.14Zm0-.9a1.17,1.17,0,0,0,0-2.33,1.17,1.17,0,0,0,0,
    2.33Zm5.85.9a2.07,2.07,0,0,1,0-4.14,2.07,2.07,0,0,1,0,4.14Zm0-.9a1.17,
    1.17,0,1,0-1.1-1.17,1.14,1.14,0,0,0,1.1,1.17Zm10.51-3.24H12.68a2.92,
    2.92,0,0,1,.86,1.8H21A5.62,5.62,0,0,1,21.41,18.86Zm-14.58,0a2.85,2.85,
    0,0,1,.85,1.8h.59a2.85,2.85,0,0,1,.85-1.8Zm12.31-1.48v.74H5.29a3.54,3.54,
    0,0,0-1.23.25,2.74,2.74,0,0,0-1.41,1.47H2.06V17.38Zm4.33-5.21.87,2.2c3.94.37,
    4.55,1.74,4.55,1.74v1.78A4.59,4.59,0,0,1,30,20.66H28.48a2.6,2.6,0,0,0-5.2,
    0H21.7a4.62,4.62,0,0,1,.94-2.54H19.83V11.38h2.36A1.39,1.39,0,0,1,23.47,
    12.17Zm4.05,5.77c.12.14.5.51.5.51h.69a6,6,0,0,0-.44-.51C27.86,17.52,27.29,17.7,
    27.52,17.94Zm-6.83-3.53h2.74l-.73-1.86a.56.56,0,0,0-.51-.27h-1.5Z"/>
  </symbol>

  <symbol viewBox="0 0 32 32" id="pick-up-truck">
    <path d="M24.51,15.74a3.47,3.47,0,0,0-1.84.53H12.34V12.8a13.79,13.79,0,0,1,.45-3.23h4.42c2.67,0,
      4.07,1.52,5.62,2.88,0,0,2.33.36,4.18.7,1.34.25,1.91.49,2.09,1.46l.3,1.66h-3A3.54,3.54,0,0,0,24.51,
      15.74ZM15.8,10.61H13.63a12.56,12.56,0,0,0-.25,2.14H15.8Zm1.41,0h-.38v2.14h4.78C20.32,11.6,19.19,10.61,
      17.21,10.61Zm11.43,4.62-.09-.52a.79.79,0,0,0-.48-.69h-2c-.27,0-.33.19-.15.38a2.82,2.82,0,0,0,.38.43c.42.41,
      1.07.4,1.88.4Zm1.08,1.83H27.26A3.5,3.5,0,0,1,28,19.27v.27l1.25-.35a.88.88,0,0,0,.71-1v-.51A.75.75,0,0,0,29.72,
      17.06ZM7.34,15.74a3.54,3.54,0,0,0-1.85.53H2.33v-.75c0-.59-.12-2.07.45-2.8h8.78v3.54H9.18A3.53,3.53,0,0,0,7.34,
      15.74ZM3.23,13.87H2.94a5.67,5.67,0,0,0,0,.58v1.29h.78c0-.13,0-.56,0-.94S3.74,13.87,3.23,13.87Zm3.59,5.4a.52.52,
      0,1,0,.52-.52A.52.52,0,0,0,6.82,19.27Zm.52-2.73a2.73,2.73,0,1,1-2.73,2.73A2.74,2.74,0,0,1,7.34,16.54Zm0,4.24a1.51,
      1.51,0,1,0-1.51-1.51A1.51,1.51,0,0,0,7.34,20.78ZM2,17.63v.78c0,.77.68.85,1.8,1.14v-.28a3.5,3.5,0,0,1,
      .78-2.21H2.3A.69.69,0,0,0,2,17.63Zm19.76-.57H10.09a3.56,3.56,0,0,1,.78,2.21v.28H21v-.27A3.5,3.5,0,0,
      1,21.76,17.06ZM24,19.27a.52.52,0,0,0,.52.52.52.52,0,0,0,.52-.52.52.52,0,0,0-.52-.52A.53.53,0,0,0,24,
      19.27Zm.52-2.73a2.73,2.73,0,1,1-2.73,2.73A2.73,2.73,0,0,1,24.51,16.54Zm0,4.24a1.51,1.51,0,1,0,0-3,1.51,
      1.51,0,0,0,0,3Z"
    />
  </symbol>

  <symbol viewBox="0 0 32 32" id="route">
    <path d="M20,26.4H6c-1.1,0-2.2-0.5-2.8-1.5c-1.2-2,0.4-4.2,2.4-4.2h5.6c2.6,0,4.6-2.1,4.6-4.6c0-2.6-2.1-4.6-4.6-4.6
      H8.3c-0.1,0-0.1,0.1-0.1,0.1c0.1,0.5,0.1,1.1,0,1.6c0,0.1,0,0.1,0.1,0.1l2.6,0c1.1,0,2.2,0.5,2.8,1.5c1.2,2-0.4,4.2-2.4,4.2H5.6
      C3,19,1,21.1,1,23.6c0,2.6,2.1,4.6,4.6,4.6h14.3c0.1,0,0.1,0,0.1-0.1c0-0.6,0-1.1,0.1-1.6C20.1,26.5,20,26.4,20,26.4z M24.5,24.5
      c-1.5,0-2.8,1.2-2.8,2.8c0,1.5,1.2,2.8,2.8,2.8c1.5,0,2.8-1.2,2.8-2.8l0,0C27.2,25.7,26,24.5,24.5,24.5z M9.4,2H3.8
      C3.3,2,2.9,2.4,2.9,2.9v6.8c-1.4,0.5-2.2,2-1.7,3.5s2,2.2,3.5,1.7s2.2-2,1.7-3.5c-0.3-0.8-0.9-1.5-1.7-1.7V7.5h4.7
      c0.5,0,0.9-0.4,0.9-0.9V2.9C10.3,2.4,9.9,2,9.4,2z M24.5,3.9c-3.6,0-6.5,2.9-6.5,6.5c0,1.9,0.8,3.8,2.3,5l3.4,6.7
      c0.2,0.4,0.8,0.6,1.2,0.4c0.2-0.1,0.3-0.2,0.4-0.4l3.4-6.7c2.8-2.3,3.1-6.4,0.8-9.2C28.3,4.7,26.4,3.9,24.5,3.9z M24.5,13.1
      c-1.5,0-2.8-1.2-2.8-2.8c0-1.5,1.2-2.8,2.8-2.8c1.5,0,2.8,1.2,2.8,2.8l0,0C27.2,11.9,26,13.1,24.5,13.1z"
    />
  </symbol>

  <symbol viewBox="0 0 32 32" id="scooter">
    <path d="M25.29,12.35c-.28-.39-.6-.81-.95-1.26l-.21-.27h1.69a1.23,1.23,0,0,1,0,1.53Z"/>
    <path d="M23.67,19.53c.59-.9,2-3,2-3l.13-.2h0A4.29,4.29,0,0,1,30,19.77H23.49Z"/>
    <path d="M10.45,12.61a8.67,8.67,0,0,0-3.33.63,5.42,5.42,0,0,1-.41-2.1h5.62a2.77,2.77,0,0,1,3,2.48,10,10,0,0,0-4.33-1Z"/>
    <path d="M2.62,16.22h1A7.68,7.68,0,0,0,3,17.68H2A5,5,0,0,1,2.62,16.22Z"/>
    <path d="M24.17,20.69a1.87,1.87,0,0,0-.14.71,2,2,0,1,0,4,0,2.08,2.08,0,0,0-.13-.71h1.52a3.36,3.36,0,0,1,
      .08.71,3.45,3.45,0,1,1-6.9,0,3.36,3.36,0,0,1,.08-.71Z"
    />
    <path d="M20.89,9.46H19.36a.46.46,0,1,1,0-.91h1.25a.6.6,0,0,1,1.15-.17l.64,1.68-1.1.45Z"/>
    <path d="M10.45,13.53H11a9.06,9.06,0,0,1,4.23,1.07l-.61,4.73h2.74c3.62,0,3.44-2.31,4.22-7.95L23,
      10.82c2.07,2.73,3,3.6,1.92,5.23-.55.82-1.27,1.87-2,3-1.34,2-3.75,2.44-6.22,2.44H12.94c-6.51,
      0-9.38-1.73-9.38-1.73C3.77,16.13,6.37,13.53,10.45,13.53Z"
    />
    <path d="M6.07,21.62a2,2,0,0,0,3.75.63c.48.05,1,.08,1.53.1a3.45,3.45,0,0,1-6.76-1,1.7,1.7,0,0,1,0-.22A12.75,
      12.75,0,0,0,6.07,21.62Z"
    />
  </symbol>

  <symbol viewBox="0 0 32 32" id="settings">
     <path d="M27.82,16a3.65,3.65,0,0,1,1.35-2.83,1.83,1.83,0,0,0,.6-2,14.66,14.66,0,0,0-.7-1.69,1.78,1.78,
        0,0,0-1.79-.93l-.41,0a3.69,3.69,0,0,1-3.69-3.63,2.42,2.42,0,0,1,0-.37,1.84,1.84,0,0,0-.95-1.85,13.69,
        13.69,0,0,0-1.47-.6,1.75,1.75,0,0,0-2,.56,3.58,3.58,0,0,1-4.17,1.12A3.62,3.62,0,0,1,13.18,2.7a1.85,
        1.85,0,0,0-2-.6,14.46,14.46,0,0,0-1.57.66,1.78,1.78,0,0,0-1,1.8,3.76,3.76,0,0,1-2.11,3.8A3.87,3.87,
        0,0,1,5,8.64a2.36,2.36,0,0,1-.37,0,1.79,1.79,0,0,0-1.81,1,13.37,13.37,0,0,0-.63,1.56,1.78,1.78,0,0,
        0,.55,2,3.63,3.63,0,0,1,1.12,4.21,3.72,3.72,0,0,1-1.08,1.49,1.84,1.84,0,0,0-.59,2,15.67,15.67,0,0,0,
        .66,1.59,1.77,1.77,0,0,0,1.8,1,3.69,3.69,0,0,1,3.76,2.22,4,4,0,0,1,.26,1.89,1.74,1.74,0,0,0,1,1.73,
        13.67,13.67,0,0,0,1.63.68,1.74,1.74,0,0,0,1.92-.57,3.59,3.59,0,0,1,4.2-1.16,3.79,3.79,0,0,1,1.48,1.08,
        1.84,1.84,0,0,0,2,.6,14.46,14.46,0,0,0,1.57-.66,1.77,1.77,0,0,0,1-1.79,3.7,3.7,0,0,1,2.2-3.8,4,4,0,0,
        1,1.86-.27,1.78,1.78,0,0,0,1.75-1c.23-.49.45-1,.64-1.49a1.83,1.83,0,0,0-.69-2.11A3.36,3.36,0,0,1,
        27.82,16ZM16.08,21.89A5.86,5.86,0,0,1,10.21,16,5.87,5.87,0,1,1,22,16h0A5.92,5.92,0,0,1,16.08,21.89Z"
      />
  </symbol>

  <symbol viewBox="0 0 32 32" id="rpm">
    <path d="M16,4A14,14,0,0,0,2,18a13.48,13.48,0,0,0,3.54,9.24c0,.09.09.19.19.28A1.6,1.6,0,0,0,8,
      27.6l.09-.09a10.84,10.84,0,0,1,15.28-.65,4.42,4.42,0,0,1,.65.65,1.6,1.6,0,0,0,2.23.09l.1-.09.18-.19A14,
      14,0,0,0,25.28,7.54,13.84,13.84,0,0,0,16,4Zm-.84,2.89A.89.89,0,0,1,16.9,6.8V9.13A.92.92,0,0,1,16,10a.83.83,
      0,0,1-.84-.84Zm-8,11.94H4.89a.89.89,0,0,1-.1-1.77H7.12A.92.92,0,0,1,8,18,.83.83,0,0,1,7.12,18.83Zm3.17-6.53h0a.78.78,
      0,0,1-1.21,0L7.49,10.72a.81.81,0,0,1,0-1.22h0a.81.81,0,0,1,1.22,0l1.58,1.59A.8.8,0,0,1,10.29,12.3Zm10.06,2.15-3,
      4.76c-.1.18-.28.28-.47.46a1.88,1.88,0,1,1-2.14-3.08h0l4.75-3a.55.55,0,0,1,.74,0,.7.7,0,0,1,.1.84Zm2.51-2.15a.78.78,
      0,0,1-1.21,0h0a.8.8,0,0,1,0-1.21L23.23,9.5a.8.8,0,0,1,1.21,0h0a.79.79,0,0,1,0,1.22Zm4.19,6.53H24.82a.89.89,0,1,
      1-.1-1.77h2.33a.91.91,0,0,1,.93.84.88.88,0,0,1-.93.93Z"
    />
  </symbol>

  <symbol viewBox="0 0 32 32" id="temperature">
    <path d="M12.91,29A6.9,6.9,0,0,1,8,17.27V7.94a4.94,4.94,0,0,1,9.88,0v9.33A6.9,6.9,0,0,1,12.91,
      29Zm0-24A2.94,2.94,0,0,0,10,7.94v10.2l-.33.3a4.91,4.91,0,1,0,6.54,0l-.33-.3V7.94A2.94,2.94,0,0,0,12.91,5Z"
    />
    <path d="M12.91,22.91a1,1,0,0,1-1-1V8a1,1,0,0,1,2,0V21.91A1,1,0,0,1,12.91,22.91Z"/>
    <circle cx="12.91" cy="21.91" r="3.55"/>
    <path d="M23.18,9.73a3.41,3.41,0,0,1-3.36-3.37,3.37,3.37,0,1,1,3.36,3.37Zm0-4.73a1.36,1.36,
      0,0,0-1.36,1.36,1.44,1.44,0,0,0,1.36,1.37,1.37,1.37,0,1,0,0-2.73Z"
    />
  </symbol>

  <symbol viewBox="0 0 32 32" id="up-arrow">
    <path d="M21.9,24.1c0.7,0.7,0.7,1.8,0,2.5c-0.3,0.3-0.8,0.5-1.2,0.5c-0.5,0-0.9-0.2-1.2-0.5l-9.4-9.4
  c-0.7-0.7-0.7-1.8,0-2.5l9.4-9.4c0.7-0.7,1.8-0.7,2.5,0c0.7,0.7,0.7,1.8,0,2.5L13.8,16L21.9,24.1z"
    />
  </symbol>

  <symbol viewBox="0 0 32 32" id="up-arrow-double">
    <path d="M27.5,24.1c0.7,0.7,0.7,1.8,0,2.5c-0.3,0.3-0.8,0.5-1.2,0.5S25.3,27,25,26.6l-9.4-9.4c-0.7-0.7-0.7-1.8,0-2.5
  L25,5.4c0.7-0.7,1.8-0.7,2.5,0s0.7,1.8,0,2.5L19.3,16L27.5,24.1z M7.6,16l8.1-8.1c0.7-0.7,0.7-1.8,0-2.5c-0.7-0.7-1.8-0.7-2.5,0
  l-9.4,9.4c-0.7,0.7-0.7,1.8,0,2.5l9.4,9.4c0.3,0.3,0.8,0.5,1.2,0.5s0.9-0.2,1.2-0.5c0.7-0.7,0.7-1.8,0-2.5L7.6,16z"
    />
  </symbol>

  <symbol viewBox="0 0 32 32" id="down-arrow">
    <path d="M28.68,19.68a1,1,0,0,1-.71-.29l-9.09-9.1c-1.42-1.41-2.44-2.44-2.94-2.44s-1.51,1-2.93,
      2.44l-9.09,9.1A1,1,0,0,1,2.5,18l9.1-9.09c4-4,4.67-4,8.69,0L29.39,18a1,1,0,0,1,0,1.42A1,1,0,0,1,28.68,19.68Z"
    />
  </symbol>

  <symbol viewBox="0 0 32 32" id="language">
    <path d="M5.61,24.31a.21.21,0,0,1-.15-.07L4.34,23.12a.24.24,0,0,1,0-.3L10.12,17a.71.71,0,0,
      0,0-1A20.41,20.41,0,0,1,7,11.35a.23.23,0,0,1,0-.2.21.21,0,0,1,.19-.1H8.82a.35.35,0,0,1,
      .15.14,19,19,0,0,0,2.46,3.69.81.81,0,0,0,1.11,0A20.62,20.62,0,0,0,16.05,9a.74.74,0,0,
      0-.11-.69.68.68,0,0,0-.59-.3H2.29a.19.19,0,0,1-.21-.22V6.23c0-.05.08-.21.21-.21h7.93a.69.69,0,0,0,
      .72-.72V3.72c0-.15.07-.22.21-.22h1.68a.25.25,0,0,1,.22.22V5.3a.69.69,0,0,0,.71.72h8c.15,0,
      .22.07.22.21V7.91a.2.2,0,0,1-.22.22H18.89a.77.77,0,0,0-.69.42,23.62,23.62,0,0,1-4.62,8v.34l2.89,
      2.9.14.09a16.65,16.65,0,0,1-.75,1.67c0,.1-.07.21-.17.21h0a.24.24,0,0,1-.17-.09l-3.08-3.08a.71.71,0,0,
      0-1,0L5.75,24.24A.21.21,0,0,1,5.61,24.31Z"
    />
    <path d="M27.93,28.21a.26.26,0,0,1-.24-.14l-1.2-3.15a.78.78,0,0,0-.7-.44H20.38a.77.77,0,0,
      0-.69.41l-1.22,3.2a.28.28,0,0,1-.24.12H16.65a.23.23,0,0,1-.19-.1.24.24,0,0,1,0-.23l5.4-14.35a.28.28,0,0,1,
      .24-.12h1.86a.26.26,0,0,1,.24.14l5.59,14.34a.3.3,0,0,1-.05.22.26.26,0,0,1-.18.1ZM23,17.2a.75.75,0,0,0-.68.42l-1.41,
      3.76a.77.77,0,0,0,.13.69.63.63,0,0,0,.48.3h2.79a.72.72,0,0,0,.6-.31.78.78,0,0,0,.11-.68l-1.4-3.73A.62.62,0,0,0,23,
      17.2Z"
    />
  </symbol>

  <symbol viewBox="0 0 32 32" id="nesting">
    <rect x="8" y="3" width="16" height="10" rx="2"/><rect x="2" y="22" width="8" height="6" rx="2"/>
    <rect x="12" y="22" width="8" height="6" rx="2"/><rect x="22" y="22" width="8" height="6" rx="2"/>
    <path d="M16,20a1,1,0,0,1-1-1V16a1,1,0,0,1,2,0v3A1,1,0,0,1,16,20Z"/>
    <path d="M29,20H3a1,1,0,0,1,0-2H29a1,1,0,0,1,0,2Z"/>
  </symbol>

  <symbol viewBox="0 0 32 32" id="reload">
    <path d="M17.56,28.88a12.57,12.57,0,0,1-8.8-3.64,1,1,0,0,1,1.42-1.42,10.44,10.44,0,1,0-3.06-7.38,
    1,1,0,0,1-2,0A12.44,12.44,0,1,1,17.56,28.88Z"
    />
    <path d="M5.92,17.89c-1.24,0-2.15-1.1-3.75-3.5a1,1,0,1,1,1.66-1.11c1,1.42,1.7,2.54,2.09,2.62s1.52-.67,2.94-1.61a1,
      1,0,0,1,1.38.27A1,1,0,0,1,10,16C8.08,17.21,6.9,17.89,5.92,17.89Z"
    />
  </symbol>

  <symbol viewBox="0 0 32 32" id="value-unit">
    <path d="M30,26.37l-4-15.93A1.7,1.7,0,0,0,24.25,9H7.77a1.7,1.7,0,0,0-1.69,1.4l-4,15.93a2.69,2.69,0,
    0,0,1.88,3.44,2.22,2.22,0,0,0,.65.19H27.34A2.76,2.76,0,0,0,30,27C30.05,26.83,30,26.65,30,26.37Z"
    />
    <path d="M16,12a5,5,0,1,1,5-5A5,5,0,0,1,16,12Zm0-8a3,3,0,1,0,3,3A3,3,0,0,0,16,4Z"/>
  </symbol>

  <symbol viewBox="0 0 32 32" id="window">
    <path d="M27,24H11a3,3,0,0,1-3-3V5a3,3,0,0,1,3-3H27a3,3,0,0,1,3,3V21A3,3,0,0,1,27,24ZM11,4a1,1,0,0,
        0-1,1V21a1,1,0,0,0,1,1H27a1,1,0,0,0,1-1V5a1,1,0,0,0-1-1Z"
    />
    <path d="M21,30H5a3,3,0,0,1-3-3V11A3,3,0,0,1,5,8H6a1,1,0,0,1,0,2H5a1,1,0,0,0-1,1V27a1,1,0,0,0,1,
      1H21a1,1,0,0,0,1-1V26a1,1,0,0,1,2,0v1A3,3,0,0,1,21,30Z"
    />
  </symbol>
</svg>